<?xml version="1.0" encoding="utf-8" standalone="no"?>
<!DOCTYPE svg PUBLIC "-//W3C//DTD SVG 1.1//EN"
  "http://www.w3.org/Graphics/SVG/1.1/DTD/svg11.dtd">
<!-- Created with matplotlib (http://matplotlib.sourceforge.net/) -->
<svg height="604pt" version="1.1" viewBox="0 0 1229 604" width="1229pt" xmlns="http://www.w3.org/2000/svg" xmlns:xlink="http://www.w3.org/1999/xlink">
 <defs>
  <style type="text/css">
*{stroke-linecap:square;stroke-linejoin:round;}
  </style>
 </defs>
 <g id="figure_1">
  <g id="patch_1">
   <path d="
M0 604.8
L1229.4 604.8
L1229.4 0
L0 0
z
" style="fill:#ffffff;"/>
  </g>
  <g id="axes_1">
   <g id="patch_2">
    <path d="
M153.675 544.32
L1106.46 544.32
L1106.46 60.48
L153.675 60.48
z
" style="fill:#ffffff;"/>
   </g>
   <g id="line2d_1">
    <path clip-path="url(#p308ec8ec34)" d="
M153.675 350.784
L154.866 347.739
L156.057 352.028
L157.248 361.226
L158.439 358.376
L159.63 361.212
L160.821 357.639
L163.203 371.2
L164.394 380.241
L165.585 367.323
L167.967 377.697
L169.158 374.333
L170.349 373.249
L171.54 372.984
L172.731 379.898
L173.922 354.988
L175.113 364.552
L176.304 366.403
L177.495 364.289
L178.686 355.536
L179.877 373.156
L181.068 377.714
L182.259 370.697
L183.45 369.824
L184.641 359.856
L185.831 378.105
L187.022 378.66
L188.213 371.221
L189.404 372.867
L190.595 377.397
L191.786 370.265
L192.977 372.254
L194.168 373.778
L195.359 365.62
L196.55 380.292
L197.741 374.368
L198.932 378.487
L200.123 369.94
L201.314 371.429
L202.505 371.034
L203.696 364.027
L204.887 372.828
L206.078 359.319
L207.269 370.06
L208.46 377.967
L209.651 389.327
L210.842 384.315
L212.033 380.619
L213.224 379.325
L214.415 372.143
L215.606 391.167
L216.797 377.071
L217.988 374.319
L219.179 376.182
L220.37 371.331
L221.561 375.228
L222.752 370.655
L223.943 368.389
L225.134 378.216
L226.325 369.683
L227.516 369.7
L228.707 357.987
L229.898 373.708
L231.089 375.658
L232.28 367.623
L233.471 388.04
L234.662 352.104
L235.853 397.639
L237.044 423.896
L238.235 421.755
L239.426 425.099
L240.617 427.08
L241.808 423.96
L242.999 419.666
L244.19 425.037
L245.381 434.757
L246.572 411.268
L247.763 425.475
L248.953 423.661
L250.144 425.686
L251.335 425.571
L253.717 419.152
L254.908 421.822
L256.099 425.147
L257.29 421.85
L258.481 424.04
L259.672 429.098
L260.863 429.544
L262.054 439.088
L263.245 425.172
L264.436 427.965
L265.627 427.52
L266.818 426.575
L268.009 422.582
L269.2 425.067
L270.391 424.623
L271.582 421.609
L272.773 429.934
L273.964 428.777
L275.155 417.672
L276.346 430.73
L277.537 427.432
L278.728 436.081
L279.919 445.996
L281.11 448.707
L282.301 437.068
L283.492 461.219
L284.683 441.545
L285.874 457.956
L287.065 448.127
L288.256 454.25
L289.447 462.317
L290.638 475.916
L291.829 466.31
L293.02 466.599
L294.211 472.656
L295.402 465.285
L296.593 473.54
L297.784 484.244
L298.975 482.319
L300.166 484.289
L301.357 478.642
L302.548 480.642
L303.739 485.597
L304.93 483.907
L306.121 481.43
L307.312 488.256
L308.503 476.128
L309.694 489.02
L310.885 492.722
L312.076 487.408
L313.266 490.88
L314.457 488.408
L315.648 500.772
L316.839 498.917
L318.03 495.227
L319.221 497.182
L320.412 497.19
L321.603 489.868
L322.794 483.911
L323.985 480.265
L325.176 478.956
L326.367 483.409
L327.558 477.728
L328.749 482.498
L329.94 485.413
L331.131 481.127
L332.322 486.967
L333.513 491.275
L334.704 486.958
L335.895 500.185
L337.086 482.342
L338.277 476.53
L339.468 483.156
L340.659 472.803
L341.85 480.646
L343.041 478.628
L344.232 478.317
L345.423 471.196
L346.614 486.08
L347.805 493.416
L348.996 488.625
L350.187 489.486
L351.378 486.7
L352.569 489.956
L353.76 502.576
L354.951 501.26
L356.142 516.175
L357.333 506.575
L358.524 493.863
L362.097 480.192
L363.288 481.681
L364.479 477.613
L365.67 477.386
L366.861 467.494
L368.052 490.552
L369.243 479.222
L370.434 479.489
L371.625 488.52
L372.816 481.742
L374.007 484.547
L375.198 481.527
L376.388 474.676
L377.579 478.108
L378.77 468.407
L379.961 466.046
L381.152 465.302
L382.343 461.177
L383.534 473.045
L384.725 450.868
L385.916 440.462
L387.107 445.415
L388.298 445.671
L389.489 430.972
L390.68 445.562
L391.871 443.376
L393.062 443.614
L394.253 439.34
L395.444 430.638
L396.635 444.12
L397.826 451.247
L399.017 450.741
L400.208 461.516
L401.399 462.859
L402.59 463.381
L403.781 463.295
L404.972 456.659
L406.163 452.612
L407.354 462.621
L408.545 441.198
L409.736 439.656
L410.927 441.09
L412.118 443.099
L413.309 447.197
L414.5 442.564
L415.691 440.528
L418.073 444.619
L419.264 448.421
L420.455 446.681
L421.646 445.201
L422.837 447.238
L424.028 432.304
L425.219 442.984
L426.41 425.393
L427.601 430.475
L428.792 418.995
L429.983 421.313
L431.174 421.255
L432.365 423.187
L433.556 426.888
L434.747 429.898
L435.938 436.919
L437.129 420.165
L438.32 409.844
L439.51 424.66
L440.701 413.188
L441.892 405.528
L443.083 400.679
L444.274 400.083
L445.465 392.901
L446.656 390.022
L447.847 382.791
L449.038 369.86
L450.229 365.259
L451.42 364.244
L452.611 363.896
L453.802 371.973
L454.993 375.233
L456.184 369.048
L457.375 380.567
L458.566 371.158
L459.757 382.151
L460.948 376.429
L462.139 372.879
L463.33 372.649
L464.521 371.884
L465.712 369.466
L466.903 372.496
L468.094 372.088
L469.285 372.078
L470.476 383.325
L471.667 372.212
L472.858 383.76
L474.049 373.38
L475.24 376.177
L476.431 376.665
L477.622 367.924
L478.813 367.061
L480.004 363.942
L481.195 364.596
L482.386 355.516
L483.577 380.465
L484.768 377.574
L485.959 376.837
L488.341 383.403
L489.532 384.568
L490.723 393.578
L491.914 401.229
L493.105 394.054
L494.296 402.168
L495.487 395.149
L496.678 394.49
L497.869 401.561
L499.06 393.255
L500.251 392.267
L501.442 392.964
L502.633 401.448
L503.823 390.845
L505.014 399.241
L506.205 391.167
L507.396 398.115
L508.587 387.287
L509.778 391.911
L510.969 384.951
L512.16 384.674
L513.351 383.423
L514.542 376.556
L515.733 364.94
L516.924 361.46
L518.115 366.898
L519.306 353.926
L520.497 347.354
L521.688 348.411
L522.879 351.289
L524.07 349.338
L525.261 340.305
L526.452 326.453
L527.643 334.759
L528.834 323.419
L530.025 327.442
L531.216 307.271
L532.407 322.117
L533.598 310.655
L534.789 322.12
L535.98 311.555
L537.171 332.353
L538.362 323.386
L539.553 333.155
L540.744 331.264
L541.935 342.966
L543.126 345.066
L544.317 352.36
L545.508 344.599
L546.699 355.802
L547.89 357.738
L549.081 367.845
L550.272 366.882
L551.463 363.529
L552.654 361.95
L553.845 371.244
L555.036 345.539
L556.227 365.998
L557.418 356.313
L558.609 361.286
L559.8 352.432
L560.991 373.656
L562.182 350.28
L563.373 357.42
L564.564 351.821
L565.755 347.289
L566.945 348.767
L568.136 351.083
L569.327 351.054
L570.518 353.077
L571.709 339.65
L572.9 351.743
L574.091 330.214
L575.282 334.033
L576.473 333.467
L577.664 338.244
L578.855 343.626
L580.046 332.058
L581.237 326.72
L582.428 329.183
L583.619 329.136
L584.81 333.862
L586.001 328.891
L587.192 332.05
L588.383 348.817
L589.574 350.815
L591.956 330.584
L593.147 343.389
L594.338 333.051
L595.529 330.87
L596.72 337.338
L597.911 325.748
L599.102 334.204
L600.293 346.881
L601.484 330.65
L602.675 340.982
L603.866 333.827
L605.057 338.751
L606.248 342.38
L608.63 340.94
L609.821 346.541
L611.012 345.382
L612.203 346.423
L613.394 353.53
L614.585 345.416
L615.776 338.76
L616.967 334.845
L618.158 337.11
L619.349 334.896
L620.54 333.324
L622.922 324.839
L624.113 332.875
L625.304 344.523
L626.495 342.755
L627.686 352.237
L628.877 332.03
L630.067 339.866
L631.258 343.685
L632.449 335.691
L633.64 338.994
L634.831 337.282
L636.022 347.257
L637.213 343.083
L638.404 338.308
L639.595 338.528
L640.786 334.84
L641.977 327.77
L643.168 323.725
L644.359 333.24
L645.55 332.204
L646.741 329.593
L647.932 334.007
L649.123 332.594
L650.314 331.919
L651.505 335.829
L652.696 327.902
L653.887 330.817
L655.078 336.113
L656.269 333.527
L657.46 339.18
L658.651 343.591
L659.842 336.762
L661.033 332.134
L662.224 339.424
L663.415 334.162
L664.606 325.223
L665.797 327.28
L666.988 334.205
L668.179 313.442
L669.37 330.377
L670.561 309.279
L671.752 330.581
L672.943 327.654
L674.134 336.651
L675.325 330.206
L676.516 349.236
L677.707 330.815
L678.898 335.676
L680.089 324.168
L681.28 324.999
L682.471 315.808
L683.662 305.571
L684.853 309.943
L686.044 312.062
L688.426 305.453
L689.617 310.444
L690.808 314.222
L691.999 305.305
L693.19 322.245
L694.38 317.9
L695.571 324.878
L696.762 308.043
L697.953 304.24
L699.144 319.012
L700.335 311.905
L701.526 298.28
L702.717 303.521
L703.908 287.58
L705.099 269.957
L706.29 263.083
L707.481 254.726
L708.672 247.817
L709.863 249.092
L711.054 243.253
L712.245 236.843
L713.436 252.781
L714.627 252.128
L715.818 250.595
L717.009 251.083
L718.2 256.755
L719.391 249.528
L720.582 248.309
L721.773 259.924
L722.964 247.165
L724.155 247.675
L725.346 253.869
L726.537 252.952
L727.728 263.504
L728.919 265.004
L730.11 261.821
L731.301 282.169
L732.492 270.609
L733.683 279.874
L734.874 271.799
L736.065 264.618
L737.256 265.148
L738.447 257.804
L739.638 245.647
L740.829 254.927
L742.02 256.53
L743.211 253.497
L744.402 253.173
L745.593 249.94
L746.784 252.136
L747.975 257.632
L749.166 249.003
L750.357 248.068
L751.548 254.203
L752.739 247.439
L753.93 234.312
L755.121 242.157
L756.312 235.886
L757.502 245.891
L758.693 232.618
L759.884 235.935
L761.075 230.608
L762.266 227.408
L763.457 230.502
L764.648 219.259
L765.839 223.375
L767.03 225.91
L768.221 227.692
L769.412 231.434
L770.603 226.034
L771.794 241.113
L772.985 247.384
L774.176 244.653
L775.367 246.142
L776.558 241.313
L777.749 255.124
L778.94 235.73
L780.131 253.427
L781.322 231.504
L782.513 260.905
L783.704 230.627
L784.895 229.843
L786.086 217.11
L787.277 216.817
L788.468 228.973
L789.659 227.876
L790.85 234.289
L792.041 239.659
L793.232 235.184
L795.614 254.446
L796.805 251.078
L797.996 256.671
L799.187 240.485
L800.378 226.042
L801.569 239.246
L802.76 228.579
L803.951 228.312
L805.142 232.327
L806.333 228.235
L807.524 233.63
L808.715 213.269
L809.906 216.441
L811.097 231.755
L812.288 223.199
L813.479 225.952
L814.67 214.319
L815.861 222.74
L817.052 219.715
L818.243 208.134
L819.434 209.742
L820.624 199.965
L821.815 198.738
L823.006 202.845
L825.388 199.618
L826.579 197.235
L827.77 190.064
L828.961 189.39
L830.152 192.77
L831.343 191.97
L832.534 193.548
L833.725 176.587
L834.916 203.863
L836.107 172.331
L837.298 174.83
L838.489 172.65
L839.68 159.307
L840.871 172.206
L842.062 161.887
L843.253 164.879
L844.444 170.261
L845.635 177.354
L848.017 180.747
L849.208 182.1
L850.399 174.514
L851.59 181.326
L852.781 184.15
L853.972 181.426
L855.163 189.352
L856.354 182.669
L857.545 186.246
L858.736 182.82
L859.927 182.41
L861.118 185.812
L862.309 190.626
L863.5 189.192
L864.691 192.404
L865.882 182.144
L867.073 192.643
L868.264 166.568
L869.455 173.525
L870.646 164.46
L871.837 152.227
L873.028 177.419
L874.219 153.989
L875.41 166.539
L876.601 164.096
L877.792 168.796
L878.983 163.635
L880.174 157.382
L881.365 169.501
L882.556 160.778
L883.747 155.091
L884.937 158.774
L886.128 158.913
L887.319 159.475
L888.51 145.513
L889.701 110.495
L890.892 110.356
L893.274 112.83
L894.465 106.58
L895.656 119.893
L896.847 121.717
L898.038 133.443
L899.229 129.721
L900.42 134.38
L901.611 114.97
L902.802 138.328
L903.993 137.061
L905.184 132.558
L906.375 138.056
L907.566 122.027
L908.757 121.06
L909.948 128.281
L911.139 123.406
L912.33 112.565
L913.521 134.881
L914.712 133.504
L915.903 146.53
L917.094 136.923
L918.285 147.956
L919.476 149.02
L920.667 153.696
L921.858 151.761
L923.049 152.787
L924.24 155.794
L925.431 141.522
L926.622 141.936
L927.813 149.676
L929.004 164.777
L930.195 155.444
L931.386 166.887
L932.577 157.578
L933.768 156.199
L934.959 167.592
L936.15 170.722
L937.341 170.425
L938.532 167.307
L939.723 167.812
L940.914 154.169
L942.105 153.246
L943.296 141.047
L944.487 143.446
L945.678 122.176
L946.869 127.485
L948.059 119.733
L949.25 130.103
L950.441 126.275
L951.632 131.604
L952.823 123.977
L954.014 147.495
L955.205 140.641
L956.396 130.007
L957.587 115.459
L958.778 113.524
L959.969 124.625
L961.16 127.288
L962.351 124.771
L963.542 128.874
L964.733 124.544
L965.924 123.791
L967.115 135.925
L968.306 122.129
L970.688 158.167
L971.879 165.357
L974.261 153.47
L975.452 173.416
L976.643 157.037
L977.834 165.478
L979.025 140.381
L980.216 153.538
L981.407 156.683
L982.598 148.96
L983.789 146.887
L984.98 138.243
L986.171 158.464
L987.362 142.368
L988.553 142.829
L989.744 135.895
L990.935 138.268
L992.126 126.953
L993.317 119.063
L994.508 128.423
L995.699 128.518
L996.89 136.468
L998.081 133.56
L999.272 127.19
L1000.46 147.592
L1001.65 120.108
L1002.84 143.059
L1004.04 119.68
L1005.23 156.375
L1006.42 152.635
L1007.61 136.543
L1008.8 116.003
L1009.99 111.776
L1011.18 112.141
L1012.37 114.146
L1013.56 106.093
L1014.75 123.393
L1015.95 134.784
L1017.14 126.105
L1018.33 125.744
L1019.52 126.927
L1020.71 120.582
L1021.9 129.144
L1023.09 125.305
L1023.09 125.305" style="fill:none;stroke:#0000ff;"/>
   </g>
   <g id="matplotlib.axis_1">
    <g id="xtick_1">
     <g id="line2d_2">
      <defs>
       <path d="
M0 0
L0 -4" id="m7fbc024f7c"/>
      </defs>
      <g>
       <use style="stroke:#000000;stroke-linecap:butt;stroke-width:0.5;" x="153.675" xlink:href="#m7fbc024f7c" y="544.32"/>
      </g>
     </g>
     <g id="line2d_3">
      <defs>
       <path d="
M0 0
L0 4" id="m6f94eb8d3a"/>
      </defs>
      <g>
       <use style="stroke:#000000;stroke-linecap:butt;stroke-width:0.5;" x="153.675" xlink:href="#m6f94eb8d3a" y="60.48"/>
      </g>
     </g>
     <g id="text_1">
      <!-- 0 -->
      <defs>
       <path d="
M31.7812 66.4062
Q24.1719 66.4062 20.3281 58.9062
Q16.5 51.4219 16.5 36.375
Q16.5 21.3906 20.3281 13.8906
Q24.1719 6.39062 31.7812 6.39062
Q39.4531 6.39062 43.2812 13.8906
Q47.125 21.3906 47.125 36.375
Q47.125 51.4219 43.2812 58.9062
Q39.4531 66.4062 31.7812 66.4062
M31.7812 74.2188
Q44.0469 74.2188 50.5156 64.5156
Q56.9844 54.8281 56.9844 36.375
Q56.9844 17.9688 50.5156 8.26562
Q44.0469 -1.42188 31.7812 -1.42188
Q19.5312 -1.42188 13.0625 8.26562
Q6.59375 17.9688 6.59375 36.375
Q6.59375 54.8281 13.0625 64.5156
Q19.5312 74.2188 31.7812 74.2188" id="BitstreamVeraSans-Roman-30"/>
      </defs>
      <g transform="translate(150.6515625 557.22625)scale(0.12 -0.12)">
       <use xlink:href="#BitstreamVeraSans-Roman-30"/>
      </g>
     </g>
    </g>
    <g id="xtick_2">
     <g id="line2d_4">
      <defs>
       <path d="
M0 0
L0 -4" id="m7fbc024f7c"/>
      </defs>
      <g>
       <use style="stroke:#000000;stroke-linecap:butt;stroke-width:0.5;" x="272.773125" xlink:href="#m7fbc024f7c" y="544.32"/>
      </g>
     </g>
     <g id="line2d_5">
      <defs>
       <path d="
M0 0
L0 4" id="m6f94eb8d3a"/>
      </defs>
      <g>
       <use style="stroke:#000000;stroke-linecap:butt;stroke-width:0.5;" x="272.773125" xlink:href="#m6f94eb8d3a" y="60.48"/>
      </g>
     </g>
     <g id="text_2">
      <!-- 100 -->
      <defs>
       <path d="
M12.4062 8.29688
L28.5156 8.29688
L28.5156 63.9219
L10.9844 60.4062
L10.9844 69.3906
L28.4219 72.9062
L38.2812 72.9062
L38.2812 8.29688
L54.3906 8.29688
L54.3906 0
L12.4062 0
z
" id="BitstreamVeraSans-Roman-31"/>
      </defs>
      <g transform="translate(262.378125 557.22625)scale(0.12 -0.12)">
       <use xlink:href="#BitstreamVeraSans-Roman-31"/>
       <use x="63.623046875" xlink:href="#BitstreamVeraSans-Roman-30"/>
       <use x="127.24609375" xlink:href="#BitstreamVeraSans-Roman-30"/>
      </g>
     </g>
    </g>
    <g id="xtick_3">
     <g id="line2d_6">
      <defs>
       <path d="
M0 0
L0 -4" id="m7fbc024f7c"/>
      </defs>
      <g>
       <use style="stroke:#000000;stroke-linecap:butt;stroke-width:0.5;" x="391.87125" xlink:href="#m7fbc024f7c" y="544.32"/>
      </g>
     </g>
     <g id="line2d_7">
      <defs>
       <path d="
M0 0
L0 4" id="m6f94eb8d3a"/>
      </defs>
      <g>
       <use style="stroke:#000000;stroke-linecap:butt;stroke-width:0.5;" x="391.87125" xlink:href="#m6f94eb8d3a" y="60.48"/>
      </g>
     </g>
     <g id="text_3">
      <!-- 200 -->
      <defs>
       <path d="
M19.1875 8.29688
L53.6094 8.29688
L53.6094 0
L7.32812 0
L7.32812 8.29688
Q12.9375 14.1094 22.625 23.8906
Q32.3281 33.6875 34.8125 36.5312
Q39.5469 41.8438 41.4219 45.5312
Q43.3125 49.2188 43.3125 52.7812
Q43.3125 58.5938 39.2344 62.25
Q35.1562 65.9219 28.6094 65.9219
Q23.9688 65.9219 18.8125 64.3125
Q13.6719 62.7031 7.8125 59.4219
L7.8125 69.3906
Q13.7656 71.7812 18.9375 73
Q24.125 74.2188 28.4219 74.2188
Q39.75 74.2188 46.4844 68.5469
Q53.2188 62.8906 53.2188 53.4219
Q53.2188 48.9219 51.5312 44.8906
Q49.8594 40.875 45.4062 35.4062
Q44.1875 33.9844 37.6406 27.2188
Q31.1094 20.4531 19.1875 8.29688" id="BitstreamVeraSans-Roman-32"/>
      </defs>
      <g transform="translate(381.256875 557.22625)scale(0.12 -0.12)">
       <use xlink:href="#BitstreamVeraSans-Roman-32"/>
       <use x="63.623046875" xlink:href="#BitstreamVeraSans-Roman-30"/>
       <use x="127.24609375" xlink:href="#BitstreamVeraSans-Roman-30"/>
      </g>
     </g>
    </g>
    <g id="xtick_4">
     <g id="line2d_8">
      <defs>
       <path d="
M0 0
L0 -4" id="m7fbc024f7c"/>
      </defs>
      <g>
       <use style="stroke:#000000;stroke-linecap:butt;stroke-width:0.5;" x="510.969375" xlink:href="#m7fbc024f7c" y="544.32"/>
      </g>
     </g>
     <g id="line2d_9">
      <defs>
       <path d="
M0 0
L0 4" id="m6f94eb8d3a"/>
      </defs>
      <g>
       <use style="stroke:#000000;stroke-linecap:butt;stroke-width:0.5;" x="510.969375" xlink:href="#m6f94eb8d3a" y="60.48"/>
      </g>
     </g>
     <g id="text_4">
      <!-- 300 -->
      <defs>
       <path d="
M40.5781 39.3125
Q47.6562 37.7969 51.625 33
Q55.6094 28.2188 55.6094 21.1875
Q55.6094 10.4062 48.1875 4.48438
Q40.7656 -1.42188 27.0938 -1.42188
Q22.5156 -1.42188 17.6562 -0.515625
Q12.7969 0.390625 7.625 2.20312
L7.625 11.7188
Q11.7188 9.32812 16.5938 8.10938
Q21.4844 6.89062 26.8125 6.89062
Q36.0781 6.89062 40.9375 10.5469
Q45.7969 14.2031 45.7969 21.1875
Q45.7969 27.6406 41.2812 31.2656
Q36.7656 34.9062 28.7188 34.9062
L20.2188 34.9062
L20.2188 43.0156
L29.1094 43.0156
Q36.375 43.0156 40.2344 45.9219
Q44.0938 48.8281 44.0938 54.2969
Q44.0938 59.9062 40.1094 62.9062
Q36.1406 65.9219 28.7188 65.9219
Q24.6562 65.9219 20.0156 65.0312
Q15.375 64.1562 9.8125 62.3125
L9.8125 71.0938
Q15.4375 72.6562 20.3438 73.4375
Q25.25 74.2188 29.5938 74.2188
Q40.8281 74.2188 47.3594 69.1094
Q53.9062 64.0156 53.9062 55.3281
Q53.9062 49.2656 50.4375 45.0938
Q46.9688 40.9219 40.5781 39.3125" id="BitstreamVeraSans-Roman-33"/>
      </defs>
      <g transform="translate(500.3728125 557.22625)scale(0.12 -0.12)">
       <use xlink:href="#BitstreamVeraSans-Roman-33"/>
       <use x="63.623046875" xlink:href="#BitstreamVeraSans-Roman-30"/>
       <use x="127.24609375" xlink:href="#BitstreamVeraSans-Roman-30"/>
      </g>
     </g>
    </g>
    <g id="xtick_5">
     <g id="line2d_10">
      <defs>
       <path d="
M0 0
L0 -4" id="m7fbc024f7c"/>
      </defs>
      <g>
       <use style="stroke:#000000;stroke-linecap:butt;stroke-width:0.5;" x="630.0675" xlink:href="#m7fbc024f7c" y="544.32"/>
      </g>
     </g>
     <g id="line2d_11">
      <defs>
       <path d="
M0 0
L0 4" id="m6f94eb8d3a"/>
      </defs>
      <g>
       <use style="stroke:#000000;stroke-linecap:butt;stroke-width:0.5;" x="630.0675" xlink:href="#m6f94eb8d3a" y="60.48"/>
      </g>
     </g>
     <g id="text_5">
      <!-- 400 -->
      <defs>
       <path d="
M37.7969 64.3125
L12.8906 25.3906
L37.7969 25.3906
z

M35.2031 72.9062
L47.6094 72.9062
L47.6094 25.3906
L58.0156 25.3906
L58.0156 17.1875
L47.6094 17.1875
L47.6094 0
L37.7969 0
L37.7969 17.1875
L4.89062 17.1875
L4.89062 26.7031
z
" id="BitstreamVeraSans-Roman-34"/>
      </defs>
      <g transform="translate(619.306875 557.22625)scale(0.12 -0.12)">
       <use xlink:href="#BitstreamVeraSans-Roman-34"/>
       <use x="63.623046875" xlink:href="#BitstreamVeraSans-Roman-30"/>
       <use x="127.24609375" xlink:href="#BitstreamVeraSans-Roman-30"/>
      </g>
     </g>
    </g>
    <g id="xtick_6">
     <g id="line2d_12">
      <defs>
       <path d="
M0 0
L0 -4" id="m7fbc024f7c"/>
      </defs>
      <g>
       <use style="stroke:#000000;stroke-linecap:butt;stroke-width:0.5;" x="749.165625" xlink:href="#m7fbc024f7c" y="544.32"/>
      </g>
     </g>
     <g id="line2d_13">
      <defs>
       <path d="
M0 0
L0 4" id="m6f94eb8d3a"/>
      </defs>
      <g>
       <use style="stroke:#000000;stroke-linecap:butt;stroke-width:0.5;" x="749.165625" xlink:href="#m6f94eb8d3a" y="60.48"/>
      </g>
     </g>
     <g id="text_6">
      <!-- 500 -->
      <defs>
       <path d="
M10.7969 72.9062
L49.5156 72.9062
L49.5156 64.5938
L19.8281 64.5938
L19.8281 46.7344
Q21.9688 47.4688 24.1094 47.8281
Q26.2656 48.1875 28.4219 48.1875
Q40.625 48.1875 47.75 41.5
Q54.8906 34.8125 54.8906 23.3906
Q54.8906 11.625 47.5625 5.09375
Q40.2344 -1.42188 26.9062 -1.42188
Q22.3125 -1.42188 17.5469 -0.640625
Q12.7969 0.140625 7.71875 1.70312
L7.71875 11.625
Q12.1094 9.23438 16.7969 8.0625
Q21.4844 6.89062 26.7031 6.89062
Q35.1562 6.89062 40.0781 11.3281
Q45.0156 15.7656 45.0156 23.3906
Q45.0156 31 40.0781 35.4375
Q35.1562 39.8906 26.7031 39.8906
Q22.75 39.8906 18.8125 39.0156
Q14.8906 38.1406 10.7969 36.2812
z
" id="BitstreamVeraSans-Roman-35"/>
      </defs>
      <g transform="translate(738.5746875 557.22625)scale(0.12 -0.12)">
       <use xlink:href="#BitstreamVeraSans-Roman-35"/>
       <use x="63.623046875" xlink:href="#BitstreamVeraSans-Roman-30"/>
       <use x="127.24609375" xlink:href="#BitstreamVeraSans-Roman-30"/>
      </g>
     </g>
    </g>
    <g id="xtick_7">
     <g id="line2d_14">
      <defs>
       <path d="
M0 0
L0 -4" id="m7fbc024f7c"/>
      </defs>
      <g>
       <use style="stroke:#000000;stroke-linecap:butt;stroke-width:0.5;" x="868.26375" xlink:href="#m7fbc024f7c" y="544.32"/>
      </g>
     </g>
     <g id="line2d_15">
      <defs>
       <path d="
M0 0
L0 4" id="m6f94eb8d3a"/>
      </defs>
      <g>
       <use style="stroke:#000000;stroke-linecap:butt;stroke-width:0.5;" x="868.26375" xlink:href="#m6f94eb8d3a" y="60.48"/>
      </g>
     </g>
     <g id="text_7">
      <!-- 600 -->
      <defs>
       <path d="
M33.0156 40.375
Q26.375 40.375 22.4844 35.8281
Q18.6094 31.2969 18.6094 23.3906
Q18.6094 15.5312 22.4844 10.9531
Q26.375 6.39062 33.0156 6.39062
Q39.6562 6.39062 43.5312 10.9531
Q47.4062 15.5312 47.4062 23.3906
Q47.4062 31.2969 43.5312 35.8281
Q39.6562 40.375 33.0156 40.375
M52.5938 71.2969
L52.5938 62.3125
Q48.875 64.0625 45.0938 64.9844
Q41.3125 65.9219 37.5938 65.9219
Q27.8281 65.9219 22.6719 59.3281
Q17.5312 52.7344 16.7969 39.4062
Q19.6719 43.6562 24.0156 45.9219
Q28.375 48.1875 33.5938 48.1875
Q44.5781 48.1875 50.9531 41.5156
Q57.3281 34.8594 57.3281 23.3906
Q57.3281 12.1562 50.6875 5.35938
Q44.0469 -1.42188 33.0156 -1.42188
Q20.3594 -1.42188 13.6719 8.26562
Q6.98438 17.9688 6.98438 36.375
Q6.98438 53.6562 15.1875 63.9375
Q23.3906 74.2188 37.2031 74.2188
Q40.9219 74.2188 44.7031 73.4844
Q48.4844 72.75 52.5938 71.2969" id="BitstreamVeraSans-Roman-36"/>
      </defs>
      <g transform="translate(857.62875 557.22625)scale(0.12 -0.12)">
       <use xlink:href="#BitstreamVeraSans-Roman-36"/>
       <use x="63.623046875" xlink:href="#BitstreamVeraSans-Roman-30"/>
       <use x="127.24609375" xlink:href="#BitstreamVeraSans-Roman-30"/>
      </g>
     </g>
    </g>
    <g id="xtick_8">
     <g id="line2d_16">
      <defs>
       <path d="
M0 0
L0 -4" id="m7fbc024f7c"/>
      </defs>
      <g>
       <use style="stroke:#000000;stroke-linecap:butt;stroke-width:0.5;" x="987.361875" xlink:href="#m7fbc024f7c" y="544.32"/>
      </g>
     </g>
     <g id="line2d_17">
      <defs>
       <path d="
M0 0
L0 4" id="m6f94eb8d3a"/>
      </defs>
      <g>
       <use style="stroke:#000000;stroke-linecap:butt;stroke-width:0.5;" x="987.361875" xlink:href="#m6f94eb8d3a" y="60.48"/>
      </g>
     </g>
     <g id="text_8">
      <!-- 700 -->
      <defs>
       <path d="
M8.20312 72.9062
L55.0781 72.9062
L55.0781 68.7031
L28.6094 0
L18.3125 0
L43.2188 64.5938
L8.20312 64.5938
z
" id="BitstreamVeraSans-Roman-37"/>
      </defs>
      <g transform="translate(976.8 557.22625)scale(0.12 -0.12)">
       <use xlink:href="#BitstreamVeraSans-Roman-37"/>
       <use x="63.623046875" xlink:href="#BitstreamVeraSans-Roman-30"/>
       <use x="127.24609375" xlink:href="#BitstreamVeraSans-Roman-30"/>
      </g>
     </g>
    </g>
    <g id="xtick_9">
     <g id="line2d_18">
      <defs>
       <path d="
M0 0
L0 -4" id="m7fbc024f7c"/>
      </defs>
      <g>
       <use style="stroke:#000000;stroke-linecap:butt;stroke-width:0.5;" x="1106.46" xlink:href="#m7fbc024f7c" y="544.32"/>
      </g>
     </g>
     <g id="line2d_19">
      <defs>
       <path d="
M0 0
L0 4" id="m6f94eb8d3a"/>
      </defs>
      <g>
       <use style="stroke:#000000;stroke-linecap:butt;stroke-width:0.5;" x="1106.46" xlink:href="#m6f94eb8d3a" y="60.48"/>
      </g>
     </g>
     <g id="text_9">
      <!-- 800 -->
      <defs>
       <path d="
M31.7812 34.625
Q24.75 34.625 20.7188 30.8594
Q16.7031 27.0938 16.7031 20.5156
Q16.7031 13.9219 20.7188 10.1562
Q24.75 6.39062 31.7812 6.39062
Q38.8125 6.39062 42.8594 10.1719
Q46.9219 13.9688 46.9219 20.5156
Q46.9219 27.0938 42.8906 30.8594
Q38.875 34.625 31.7812 34.625
M21.9219 38.8125
Q15.5781 40.375 12.0312 44.7188
Q8.5 49.0781 8.5 55.3281
Q8.5 64.0625 14.7188 69.1406
Q20.9531 74.2188 31.7812 74.2188
Q42.6719 74.2188 48.875 69.1406
Q55.0781 64.0625 55.0781 55.3281
Q55.0781 49.0781 51.5312 44.7188
Q48 40.375 41.7031 38.8125
Q48.8281 37.1562 52.7969 32.3125
Q56.7812 27.4844 56.7812 20.5156
Q56.7812 9.90625 50.3125 4.23438
Q43.8438 -1.42188 31.7812 -1.42188
Q19.7344 -1.42188 13.25 4.23438
Q6.78125 9.90625 6.78125 20.5156
Q6.78125 27.4844 10.7812 32.3125
Q14.7969 37.1562 21.9219 38.8125
M18.3125 54.3906
Q18.3125 48.7344 21.8438 45.5625
Q25.3906 42.3906 31.7812 42.3906
Q38.1406 42.3906 41.7188 45.5625
Q45.3125 48.7344 45.3125 54.3906
Q45.3125 60.0625 41.7188 63.2344
Q38.1406 66.4062 31.7812 66.4062
Q25.3906 66.4062 21.8438 63.2344
Q18.3125 60.0625 18.3125 54.3906" id="BitstreamVeraSans-Roman-38"/>
      </defs>
      <g transform="translate(1095.8128125 557.22625)scale(0.12 -0.12)">
       <use xlink:href="#BitstreamVeraSans-Roman-38"/>
       <use x="63.623046875" xlink:href="#BitstreamVeraSans-Roman-30"/>
       <use x="127.24609375" xlink:href="#BitstreamVeraSans-Roman-30"/>
      </g>
     </g>
    </g>
    <g id="text_10">
     <!-- Day -->
     <defs>
      <path d="
M19.6719 64.7969
L19.6719 8.10938
L31.5938 8.10938
Q46.6875 8.10938 53.6875 14.9375
Q60.6875 21.7812 60.6875 36.5312
Q60.6875 51.1719 53.6875 57.9844
Q46.6875 64.7969 31.5938 64.7969
z

M9.8125 72.9062
L30.0781 72.9062
Q51.2656 72.9062 61.1719 64.0938
Q71.0938 55.2812 71.0938 36.5312
Q71.0938 17.6719 61.125 8.82812
Q51.1719 0 30.0781 0
L9.8125 0
z
" id="BitstreamVeraSans-Roman-44"/>
      <path d="
M34.2812 27.4844
Q23.3906 27.4844 19.1875 25
Q14.9844 22.5156 14.9844 16.5
Q14.9844 11.7188 18.1406 8.90625
Q21.2969 6.10938 26.7031 6.10938
Q34.1875 6.10938 38.7031 11.4062
Q43.2188 16.7031 43.2188 25.4844
L43.2188 27.4844
z

M52.2031 31.2031
L52.2031 0
L43.2188 0
L43.2188 8.29688
Q40.1406 3.32812 35.5469 0.953125
Q30.9531 -1.42188 24.3125 -1.42188
Q15.9219 -1.42188 10.9531 3.29688
Q6 8.01562 6 15.9219
Q6 25.1406 12.1719 29.8281
Q18.3594 34.5156 30.6094 34.5156
L43.2188 34.5156
L43.2188 35.4062
Q43.2188 41.6094 39.1406 45
Q35.0625 48.3906 27.6875 48.3906
Q23 48.3906 18.5469 47.2656
Q14.1094 46.1406 10.0156 43.8906
L10.0156 52.2031
Q14.9375 54.1094 19.5781 55.0469
Q24.2188 56 28.6094 56
Q40.4844 56 46.3438 49.8438
Q52.2031 43.7031 52.2031 31.2031" id="BitstreamVeraSans-Roman-61"/>
      <path d="
M32.1719 -5.07812
Q28.375 -14.8438 24.75 -17.8125
Q21.1406 -20.7969 15.0938 -20.7969
L7.90625 -20.7969
L7.90625 -13.2812
L13.1875 -13.2812
Q16.8906 -13.2812 18.9375 -11.5156
Q21 -9.76562 23.4844 -3.21875
L25.0938 0.875
L2.98438 54.6875
L12.5 54.6875
L29.5938 11.9219
L46.6875 54.6875
L56.2031 54.6875
z
" id="BitstreamVeraSans-Roman-79"/>
     </defs>
     <g transform="translate(618.9871875 571.145625)scale(0.12 -0.12)">
      <use xlink:href="#BitstreamVeraSans-Roman-44"/>
      <use x="77.001953125" xlink:href="#BitstreamVeraSans-Roman-61"/>
      <use x="138.28125" xlink:href="#BitstreamVeraSans-Roman-79"/>
     </g>
    </g>
   </g>
   <g id="matplotlib.axis_2">
    <g id="ytick_1">
     <g id="line2d_20">
      <defs>
       <path d="
M0 0
L4 0" id="ma4a17aac7e"/>
      </defs>
      <g>
       <use style="stroke:#000000;stroke-linecap:butt;stroke-width:0.5;" x="153.675" xlink:href="#ma4a17aac7e" y="544.32"/>
      </g>
     </g>
     <g id="line2d_21">
      <defs>
       <path d="
M0 0
L-4 0" id="m4059d849be"/>
      </defs>
      <g>
       <use style="stroke:#000000;stroke-linecap:butt;stroke-width:0.5;" x="1106.46" xlink:href="#m4059d849be" y="544.32"/>
      </g>
     </g>
     <g id="text_11">
      <!-- 800 -->
      <g transform="translate(128.380625 548.6878125)scale(0.12 -0.12)">
       <use xlink:href="#BitstreamVeraSans-Roman-38"/>
       <use x="63.623046875" xlink:href="#BitstreamVeraSans-Roman-30"/>
       <use x="127.24609375" xlink:href="#BitstreamVeraSans-Roman-30"/>
      </g>
     </g>
    </g>
    <g id="ytick_2">
     <g id="line2d_22">
      <defs>
       <path d="
M0 0
L4 0" id="ma4a17aac7e"/>
      </defs>
      <g>
       <use style="stroke:#000000;stroke-linecap:butt;stroke-width:0.5;" x="153.675" xlink:href="#ma4a17aac7e" y="447.552"/>
      </g>
     </g>
     <g id="line2d_23">
      <defs>
       <path d="
M0 0
L-4 0" id="m4059d849be"/>
      </defs>
      <g>
       <use style="stroke:#000000;stroke-linecap:butt;stroke-width:0.5;" x="1106.46" xlink:href="#m4059d849be" y="447.552"/>
      </g>
     </g>
     <g id="text_12">
      <!-- 900 -->
      <defs>
       <path d="
M10.9844 1.51562
L10.9844 10.5
Q14.7031 8.73438 18.5 7.8125
Q22.3125 6.89062 25.9844 6.89062
Q35.75 6.89062 40.8906 13.4531
Q46.0469 20.0156 46.7812 33.4062
Q43.9531 29.2031 39.5938 26.9531
Q35.25 24.7031 29.9844 24.7031
Q19.0469 24.7031 12.6719 31.3125
Q6.29688 37.9375 6.29688 49.4219
Q6.29688 60.6406 12.9375 67.4219
Q19.5781 74.2188 30.6094 74.2188
Q43.2656 74.2188 49.9219 64.5156
Q56.5938 54.8281 56.5938 36.375
Q56.5938 19.1406 48.4062 8.85938
Q40.2344 -1.42188 26.4219 -1.42188
Q22.7031 -1.42188 18.8906 -0.6875
Q15.0938 0.046875 10.9844 1.51562
M30.6094 32.4219
Q37.25 32.4219 41.125 36.9531
Q45.0156 41.5 45.0156 49.4219
Q45.0156 57.2812 41.125 61.8438
Q37.25 66.4062 30.6094 66.4062
Q23.9688 66.4062 20.0938 61.8438
Q16.2188 57.2812 16.2188 49.4219
Q16.2188 41.5 20.0938 36.9531
Q23.9688 32.4219 30.6094 32.4219" id="BitstreamVeraSans-Roman-39"/>
      </defs>
      <g transform="translate(128.3225 451.9198125)scale(0.12 -0.12)">
       <use xlink:href="#BitstreamVeraSans-Roman-39"/>
       <use x="63.623046875" xlink:href="#BitstreamVeraSans-Roman-30"/>
       <use x="127.24609375" xlink:href="#BitstreamVeraSans-Roman-30"/>
      </g>
     </g>
    </g>
    <g id="ytick_3">
     <g id="line2d_24">
      <defs>
       <path d="
M0 0
L4 0" id="ma4a17aac7e"/>
      </defs>
      <g>
       <use style="stroke:#000000;stroke-linecap:butt;stroke-width:0.5;" x="153.675" xlink:href="#ma4a17aac7e" y="350.784"/>
      </g>
     </g>
     <g id="line2d_25">
      <defs>
       <path d="
M0 0
L-4 0" id="m4059d849be"/>
      </defs>
      <g>
       <use style="stroke:#000000;stroke-linecap:butt;stroke-width:0.5;" x="1106.46" xlink:href="#m4059d849be" y="350.784"/>
      </g>
     </g>
     <g id="text_13">
      <!-- 1000 -->
      <g transform="translate(121.25 355.1518125)scale(0.12 -0.12)">
       <use xlink:href="#BitstreamVeraSans-Roman-31"/>
       <use x="63.623046875" xlink:href="#BitstreamVeraSans-Roman-30"/>
       <use x="127.24609375" xlink:href="#BitstreamVeraSans-Roman-30"/>
       <use x="190.869140625" xlink:href="#BitstreamVeraSans-Roman-30"/>
      </g>
     </g>
    </g>
    <g id="ytick_4">
     <g id="line2d_26">
      <defs>
       <path d="
M0 0
L4 0" id="ma4a17aac7e"/>
      </defs>
      <g>
       <use style="stroke:#000000;stroke-linecap:butt;stroke-width:0.5;" x="153.675" xlink:href="#ma4a17aac7e" y="254.016"/>
      </g>
     </g>
     <g id="line2d_27">
      <defs>
       <path d="
M0 0
L-4 0" id="m4059d849be"/>
      </defs>
      <g>
       <use style="stroke:#000000;stroke-linecap:butt;stroke-width:0.5;" x="1106.46" xlink:href="#m4059d849be" y="254.016"/>
      </g>
     </g>
     <g id="text_14">
      <!-- 1100 -->
      <g transform="translate(121.25 258.3838125)scale(0.12 -0.12)">
       <use xlink:href="#BitstreamVeraSans-Roman-31"/>
       <use x="63.623046875" xlink:href="#BitstreamVeraSans-Roman-31"/>
       <use x="127.24609375" xlink:href="#BitstreamVeraSans-Roman-30"/>
       <use x="190.869140625" xlink:href="#BitstreamVeraSans-Roman-30"/>
      </g>
     </g>
    </g>
    <g id="ytick_5">
     <g id="line2d_28">
      <defs>
       <path d="
M0 0
L4 0" id="ma4a17aac7e"/>
      </defs>
      <g>
       <use style="stroke:#000000;stroke-linecap:butt;stroke-width:0.5;" x="153.675" xlink:href="#ma4a17aac7e" y="157.248"/>
      </g>
     </g>
     <g id="line2d_29">
      <defs>
       <path d="
M0 0
L-4 0" id="m4059d849be"/>
      </defs>
      <g>
       <use style="stroke:#000000;stroke-linecap:butt;stroke-width:0.5;" x="1106.46" xlink:href="#m4059d849be" y="157.248"/>
      </g>
     </g>
     <g id="text_15">
      <!-- 1200 -->
      <g transform="translate(121.25 161.6158125)scale(0.12 -0.12)">
       <use xlink:href="#BitstreamVeraSans-Roman-31"/>
       <use x="63.623046875" xlink:href="#BitstreamVeraSans-Roman-32"/>
       <use x="127.24609375" xlink:href="#BitstreamVeraSans-Roman-30"/>
       <use x="190.869140625" xlink:href="#BitstreamVeraSans-Roman-30"/>
      </g>
     </g>
    </g>
    <g id="ytick_6">
     <g id="line2d_30">
      <defs>
       <path d="
M0 0
L4 0" id="ma4a17aac7e"/>
      </defs>
      <g>
       <use style="stroke:#000000;stroke-linecap:butt;stroke-width:0.5;" x="153.675" xlink:href="#ma4a17aac7e" y="60.48"/>
      </g>
     </g>
     <g id="line2d_31">
      <defs>
       <path d="
M0 0
L-4 0" id="m4059d849be"/>
      </defs>
      <g>
       <use style="stroke:#000000;stroke-linecap:butt;stroke-width:0.5;" x="1106.46" xlink:href="#m4059d849be" y="60.48"/>
      </g>
     </g>
     <g id="text_16">
      <!-- 1300 -->
      <g transform="translate(121.25 64.8478125)scale(0.12 -0.12)">
       <use xlink:href="#BitstreamVeraSans-Roman-31"/>
       <use x="63.623046875" xlink:href="#BitstreamVeraSans-Roman-33"/>
       <use x="127.24609375" xlink:href="#BitstreamVeraSans-Roman-30"/>
       <use x="190.869140625" xlink:href="#BitstreamVeraSans-Roman-30"/>
      </g>
     </g>
    </g>
    <g id="text_17">
     <!-- Price -->
     <defs>
      <path d="
M19.6719 64.7969
L19.6719 37.4062
L32.0781 37.4062
Q38.9688 37.4062 42.7188 40.9688
Q46.4844 44.5312 46.4844 51.125
Q46.4844 57.6719 42.7188 61.2344
Q38.9688 64.7969 32.0781 64.7969
z

M9.8125 72.9062
L32.0781 72.9062
Q44.3438 72.9062 50.6094 67.3594
Q56.8906 61.8125 56.8906 51.125
Q56.8906 40.3281 50.6094 34.8125
Q44.3438 29.2969 32.0781 29.2969
L19.6719 29.2969
L19.6719 0
L9.8125 0
z
" id="BitstreamVeraSans-Roman-50"/>
      <path d="
M9.42188 54.6875
L18.4062 54.6875
L18.4062 0
L9.42188 0
z

M9.42188 75.9844
L18.4062 75.9844
L18.4062 64.5938
L9.42188 64.5938
z
" id="BitstreamVeraSans-Roman-69"/>
      <path d="
M56.2031 29.5938
L56.2031 25.2031
L14.8906 25.2031
Q15.4844 15.9219 20.4844 11.0625
Q25.4844 6.20312 34.4219 6.20312
Q39.5938 6.20312 44.4531 7.46875
Q49.3125 8.73438 54.1094 11.2812
L54.1094 2.78125
Q49.2656 0.734375 44.1875 -0.34375
Q39.1094 -1.42188 33.8906 -1.42188
Q20.7969 -1.42188 13.1562 6.1875
Q5.51562 13.8125 5.51562 26.8125
Q5.51562 40.2344 12.7656 48.1094
Q20.0156 56 32.3281 56
Q43.3594 56 49.7812 48.8906
Q56.2031 41.7969 56.2031 29.5938
M47.2188 32.2344
Q47.125 39.5938 43.0938 43.9844
Q39.0625 48.3906 32.4219 48.3906
Q24.9062 48.3906 20.3906 44.1406
Q15.875 39.8906 15.1875 32.1719
z
" id="BitstreamVeraSans-Roman-65"/>
      <path d="
M41.1094 46.2969
Q39.5938 47.1719 37.8125 47.5781
Q36.0312 48 33.8906 48
Q26.2656 48 22.1875 43.0469
Q18.1094 38.0938 18.1094 28.8125
L18.1094 0
L9.07812 0
L9.07812 54.6875
L18.1094 54.6875
L18.1094 46.1875
Q20.9531 51.1719 25.4844 53.5781
Q30.0312 56 36.5312 56
Q37.4531 56 38.5781 55.875
Q39.7031 55.7656 41.0625 55.5156
z
" id="BitstreamVeraSans-Roman-72"/>
      <path d="
M48.7812 52.5938
L48.7812 44.1875
Q44.9688 46.2969 41.1406 47.3438
Q37.3125 48.3906 33.4062 48.3906
Q24.6562 48.3906 19.8125 42.8438
Q14.9844 37.3125 14.9844 27.2969
Q14.9844 17.2812 19.8125 11.7344
Q24.6562 6.20312 33.4062 6.20312
Q37.3125 6.20312 41.1406 7.25
Q44.9688 8.29688 48.7812 10.4062
L48.7812 2.09375
Q45.0156 0.34375 40.9844 -0.53125
Q36.9688 -1.42188 32.4219 -1.42188
Q20.0625 -1.42188 12.7812 6.34375
Q5.51562 14.1094 5.51562 27.2969
Q5.51562 40.6719 12.8594 48.3281
Q20.2188 56 33.0156 56
Q37.1562 56 41.1094 55.1406
Q45.0625 54.2969 48.7812 52.5938" id="BitstreamVeraSans-Roman-63"/>
     </defs>
     <g transform="translate(116.25 315.958125)rotate(-90.0)scale(0.12 -0.12)">
      <use xlink:href="#BitstreamVeraSans-Roman-50"/>
      <use x="58.552734375" xlink:href="#BitstreamVeraSans-Roman-72"/>
      <use x="99.666015625" xlink:href="#BitstreamVeraSans-Roman-69"/>
      <use x="127.44921875" xlink:href="#BitstreamVeraSans-Roman-63"/>
      <use x="182.4296875" xlink:href="#BitstreamVeraSans-Roman-65"/>
     </g>
    </g>
   </g>
   <g id="patch_3">
    <path d="
M153.675 60.48
L1106.46 60.48" style="fill:none;stroke:#000000;"/>
   </g>
   <g id="patch_4">
    <path d="
M1106.46 544.32
L1106.46 60.48" style="fill:none;stroke:#000000;"/>
   </g>
   <g id="patch_5">
    <path d="
M153.675 544.32
L1106.46 544.32" style="fill:none;stroke:#000000;"/>
   </g>
   <g id="patch_6">
    <path d="
M153.675 544.32
L153.675 60.48" style="fill:none;stroke:#000000;"/>
   </g>
   <g id="patch_7">
    <path d="
M207.269 327.554
L207.269 366.942" style="fill:none;stroke:#000000;stroke-linecap:round;"/>
    <path d="
M209.669 362.142
L207.269 366.942
L204.869 362.142" style="fill:none;stroke:#000000;stroke-linecap:round;"/>
   </g>
   <g id="text_18">
    <!-- Valentines Day -->
    <defs>
     <path id="BitstreamVeraSans-Roman-20"/>
     <path d="
M54.8906 33.0156
L54.8906 0
L45.9062 0
L45.9062 32.7188
Q45.9062 40.4844 42.875 44.3281
Q39.8438 48.1875 33.7969 48.1875
Q26.5156 48.1875 22.3125 43.5469
Q18.1094 38.9219 18.1094 30.9062
L18.1094 0
L9.07812 0
L9.07812 54.6875
L18.1094 54.6875
L18.1094 46.1875
Q21.3438 51.125 25.7031 53.5625
Q30.0781 56 35.7969 56
Q45.2188 56 50.0469 50.1719
Q54.8906 44.3438 54.8906 33.0156" id="BitstreamVeraSans-Roman-6e"/>
     <path d="
M9.42188 75.9844
L18.4062 75.9844
L18.4062 0
L9.42188 0
z
" id="BitstreamVeraSans-Roman-6c"/>
     <path d="
M28.6094 0
L0.78125 72.9062
L11.0781 72.9062
L34.1875 11.5312
L57.3281 72.9062
L67.5781 72.9062
L39.7969 0
z
" id="BitstreamVeraSans-Roman-56"/>
     <path d="
M18.3125 70.2188
L18.3125 54.6875
L36.8125 54.6875
L36.8125 47.7031
L18.3125 47.7031
L18.3125 18.0156
Q18.3125 11.3281 20.1406 9.42188
Q21.9688 7.51562 27.5938 7.51562
L36.8125 7.51562
L36.8125 0
L27.5938 0
Q17.1875 0 13.2344 3.875
Q9.28125 7.76562 9.28125 18.0156
L9.28125 47.7031
L2.6875 47.7031
L2.6875 54.6875
L9.28125 54.6875
L9.28125 70.2188
z
" id="BitstreamVeraSans-Roman-74"/>
     <path d="
M44.2812 53.0781
L44.2812 44.5781
Q40.4844 46.5312 36.375 47.5
Q32.2812 48.4844 27.875 48.4844
Q21.1875 48.4844 17.8438 46.4375
Q14.5 44.3906 14.5 40.2812
Q14.5 37.1562 16.8906 35.375
Q19.2812 33.5938 26.5156 31.9844
L29.5938 31.2969
Q39.1562 29.25 43.1875 25.5156
Q47.2188 21.7812 47.2188 15.0938
Q47.2188 7.46875 41.1875 3.01562
Q35.1562 -1.42188 24.6094 -1.42188
Q20.2188 -1.42188 15.4531 -0.5625
Q10.6875 0.296875 5.42188 2
L5.42188 11.2812
Q10.4062 8.6875 15.2344 7.39062
Q20.0625 6.10938 24.8125 6.10938
Q31.1562 6.10938 34.5625 8.28125
Q37.9844 10.4531 37.9844 14.4062
Q37.9844 18.0625 35.5156 20.0156
Q33.0625 21.9688 24.7031 23.7812
L21.5781 24.5156
Q13.2344 26.2656 9.51562 29.9062
Q5.8125 33.5469 5.8125 39.8906
Q5.8125 47.6094 11.2812 51.7969
Q16.75 56 26.8125 56
Q31.7812 56 36.1719 55.2656
Q40.5781 54.5469 44.2812 53.0781" id="BitstreamVeraSans-Roman-73"/>
    </defs>
    <g transform="translate(162.57665625 321.056446095)scale(0.12 -0.12)">
     <use xlink:href="#BitstreamVeraSans-Roman-56"/>
     <use x="60.658203125" xlink:href="#BitstreamVeraSans-Roman-61"/>
     <use x="121.9375" xlink:href="#BitstreamVeraSans-Roman-6c"/>
     <use x="149.720703125" xlink:href="#BitstreamVeraSans-Roman-65"/>
     <use x="211.244140625" xlink:href="#BitstreamVeraSans-Roman-6e"/>
     <use x="274.623046875" xlink:href="#BitstreamVeraSans-Roman-74"/>
     <use x="313.83203125" xlink:href="#BitstreamVeraSans-Roman-69"/>
     <use x="341.615234375" xlink:href="#BitstreamVeraSans-Roman-6e"/>
     <use x="404.994140625" xlink:href="#BitstreamVeraSans-Roman-65"/>
     <use x="466.517578125" xlink:href="#BitstreamVeraSans-Roman-73"/>
     <use x="518.6171875" xlink:href="#BitstreamVeraSans-Roman-20"/>
     <use x="550.404296875" xlink:href="#BitstreamVeraSans-Roman-44"/>
     <use x="627.40625" xlink:href="#BitstreamVeraSans-Roman-61"/>
     <use x="688.685546875" xlink:href="#BitstreamVeraSans-Roman-79"/>
    </g>
   </g>
   <g id="patch_8">
    <path d="
M235.853 432.103
L235.853 400.755" style="fill:none;stroke:#000000;stroke-linecap:round;"/>
    <path d="
M233.453 405.555
L235.853 400.755
L238.253 405.555" style="fill:none;stroke:#000000;stroke-linecap:round;"/>
   </g>
   <g id="text_19">
    <!-- March Break -->
    <defs>
     <path d="
M9.8125 72.9062
L24.5156 72.9062
L43.1094 23.2969
L61.8125 72.9062
L76.5156 72.9062
L76.5156 0
L66.8906 0
L66.8906 64.0156
L48.0938 14.0156
L38.1875 14.0156
L19.3906 64.0156
L19.3906 0
L9.8125 0
z
" id="BitstreamVeraSans-Roman-4d"/>
     <path d="
M54.8906 33.0156
L54.8906 0
L45.9062 0
L45.9062 32.7188
Q45.9062 40.4844 42.875 44.3281
Q39.8438 48.1875 33.7969 48.1875
Q26.5156 48.1875 22.3125 43.5469
Q18.1094 38.9219 18.1094 30.9062
L18.1094 0
L9.07812 0
L9.07812 75.9844
L18.1094 75.9844
L18.1094 46.1875
Q21.3438 51.125 25.7031 53.5625
Q30.0781 56 35.7969 56
Q45.2188 56 50.0469 50.1719
Q54.8906 44.3438 54.8906 33.0156" id="BitstreamVeraSans-Roman-68"/>
     <path d="
M9.07812 75.9844
L18.1094 75.9844
L18.1094 31.1094
L44.9219 54.6875
L56.3906 54.6875
L27.3906 29.1094
L57.625 0
L45.9062 0
L18.1094 26.7031
L18.1094 0
L9.07812 0
z
" id="BitstreamVeraSans-Roman-6b"/>
     <path d="
M19.6719 34.8125
L19.6719 8.10938
L35.5 8.10938
Q43.4531 8.10938 47.2812 11.4062
Q51.125 14.7031 51.125 21.4844
Q51.125 28.3281 47.2812 31.5625
Q43.4531 34.8125 35.5 34.8125
z

M19.6719 64.7969
L19.6719 42.8281
L34.2812 42.8281
Q41.5 42.8281 45.0312 45.5312
Q48.5781 48.25 48.5781 53.8125
Q48.5781 59.3281 45.0312 62.0625
Q41.5 64.7969 34.2812 64.7969
z

M9.8125 72.9062
L35.0156 72.9062
Q46.2969 72.9062 52.3906 68.2188
Q58.5 63.5312 58.5 54.8906
Q58.5 48.1875 55.375 44.2344
Q52.25 40.2812 46.1875 39.3125
Q53.4688 37.75 57.5 32.7812
Q61.5312 27.8281 61.5312 20.4062
Q61.5312 10.6406 54.8906 5.3125
Q48.25 0 35.9844 0
L9.8125 0
z
" id="BitstreamVeraSans-Roman-42"/>
    </defs>
    <g transform="translate(198.38458125 445.217839541)scale(0.12 -0.12)">
     <use xlink:href="#BitstreamVeraSans-Roman-4d"/>
     <use x="86.279296875" xlink:href="#BitstreamVeraSans-Roman-61"/>
     <use x="147.55859375" xlink:href="#BitstreamVeraSans-Roman-72"/>
     <use x="186.421875" xlink:href="#BitstreamVeraSans-Roman-63"/>
     <use x="241.40234375" xlink:href="#BitstreamVeraSans-Roman-68"/>
     <use x="304.78125" xlink:href="#BitstreamVeraSans-Roman-20"/>
     <use x="336.568359375" xlink:href="#BitstreamVeraSans-Roman-42"/>
     <use x="405.171875" xlink:href="#BitstreamVeraSans-Roman-72"/>
     <use x="444.03515625" xlink:href="#BitstreamVeraSans-Roman-65"/>
     <use x="505.55859375" xlink:href="#BitstreamVeraSans-Roman-61"/>
     <use x="566.837890625" xlink:href="#BitstreamVeraSans-Roman-6b"/>
    </g>
   </g>
   <g id="patch_9">
    <path d="
M444.274 359.151
L444.274 396.961" style="fill:none;stroke:#000000;stroke-linecap:round;"/>
    <path d="
M446.674 392.161
L444.274 396.961
L441.874 392.161" style="fill:none;stroke:#000000;stroke-linecap:round;"/>
   </g>
   <g id="text_20">
    <!-- September $1^{st}$ -->
    <defs>
     <path d="
M9.28125 0
L9.28125 3.51562
Q21.7812 3.51562 21.7812 6.6875
L21.7812 59.1875
Q16.6094 56.6875 8.6875 56.6875
L8.6875 60.2031
Q20.9531 60.2031 27.2031 66.6094
L28.6094 66.6094
Q28.9531 66.6094 29.2656 66.3281
Q29.5938 66.0625 29.5938 65.7188
L29.5938 6.6875
Q29.5938 3.51562 42.0938 3.51562
L42.0938 0
z
" id="Cmr10-31"/>
     <path d="
M52 44.1875
Q55.375 50.25 60.0625 53.125
Q64.75 56 71.0938 56
Q79.6406 56 84.2812 50.0156
Q88.9219 44.0469 88.9219 33.0156
L88.9219 0
L79.8906 0
L79.8906 32.7188
Q79.8906 40.5781 77.0938 44.375
Q74.3125 48.1875 68.6094 48.1875
Q61.625 48.1875 57.5625 43.5469
Q53.5156 38.9219 53.5156 30.9062
L53.5156 0
L44.4844 0
L44.4844 32.7188
Q44.4844 40.625 41.7031 44.4062
Q38.9219 48.1875 33.1094 48.1875
Q26.2188 48.1875 22.1562 43.5312
Q18.1094 38.875 18.1094 30.9062
L18.1094 0
L9.07812 0
L9.07812 54.6875
L18.1094 54.6875
L18.1094 46.1875
Q21.1875 51.2188 25.4844 53.6094
Q29.7812 56 35.6875 56
Q41.6562 56 45.8281 52.9688
Q50 49.9531 52 44.1875" id="BitstreamVeraSans-Roman-6d"/>
     <path d="
M8.6875 6.10938
Q11.375 1.51562 19.4844 1.51562
Q23 1.51562 26.1719 2.70312
Q29.3438 3.90625 31.4219 6.29688
Q33.5 8.6875 33.5 12.1094
Q33.5 14.7031 31.6406 16.3594
Q29.7812 18.0156 27.0938 18.6094
L21.6875 19.6719
Q17.9688 20.6094 15.5781 23.1406
Q13.1875 25.6875 13.1875 29.2969
Q13.1875 33.7344 15.5938 37.1562
Q18.0156 40.5781 21.9688 42.375
Q25.9219 44.1875 30.1719 44.1875
Q34.7188 44.1875 38.2969 42.0156
Q41.8906 39.8438 41.8906 35.5938
Q41.8906 33.2969 40.5938 31.5312
Q39.3125 29.7812 37.0156 29.7812
Q35.6875 29.7812 34.7344 30.6406
Q33.7969 31.5 33.7969 32.8125
Q33.7969 33.9844 34.4531 35.0781
Q35.1094 36.1875 36.2031 36.8438
Q37.3125 37.5 38.4844 37.5
Q37.5938 39.6562 35.1719 40.625
Q32.7656 41.6094 29.9844 41.6094
Q27.4375 41.6094 24.8906 40.5781
Q22.3594 39.5469 20.8125 37.5625
Q19.2812 35.5938 19.2812 32.9062
Q19.2812 31.1094 20.5469 29.7344
Q21.8281 28.375 23.6875 27.7812
L29.5 26.6094
Q32.2812 26.0312 34.5938 24.5312
Q36.9219 23.0469 38.25 20.7656
Q39.5938 18.5 39.5938 15.5781
Q39.5938 11.8594 37.5156 8.25
Q35.4531 4.64062 32.4219 2.48438
Q27.0938 -1.125 19.3906 -1.125
Q14.0625 -1.125 9.60938 1.3125
Q5.17188 3.76562 5.17188 8.59375
Q5.17188 11.3281 6.75 13.3438
Q8.34375 15.375 11.0781 15.375
Q12.7031 15.375 13.7969 14.3906
Q14.8906 13.4219 14.8906 11.8125
Q14.8906 9.51562 13.1719 7.8125
Q11.4688 6.10938 9.1875 6.10938
z
" id="Cmmi10-73"/>
     <path d="
M53.5156 70.5156
L53.5156 60.8906
Q47.9062 63.5781 42.9219 64.8906
Q37.9375 66.2188 33.2969 66.2188
Q25.25 66.2188 20.875 63.0938
Q16.5 59.9688 16.5 54.2031
Q16.5 49.3594 19.4062 46.8906
Q22.3125 44.4375 30.4219 42.9219
L36.375 41.7031
Q47.4062 39.5938 52.6562 34.2969
Q57.9062 29 57.9062 20.125
Q57.9062 9.51562 50.7969 4.04688
Q43.7031 -1.42188 29.9844 -1.42188
Q24.8125 -1.42188 18.9688 -0.25
Q13.1406 0.921875 6.89062 3.21875
L6.89062 13.375
Q12.8906 10.0156 18.6562 8.29688
Q24.4219 6.59375 29.9844 6.59375
Q38.4219 6.59375 43.0156 9.90625
Q47.6094 13.2344 47.6094 19.3906
Q47.6094 24.75 44.3125 27.7812
Q41.0156 30.8125 33.5 32.3281
L27.4844 33.5
Q16.4531 35.6875 11.5156 40.375
Q6.59375 45.0625 6.59375 53.4219
Q6.59375 63.0938 13.4062 68.6562
Q20.2188 74.2188 32.1719 74.2188
Q37.3125 74.2188 42.625 73.2812
Q47.9531 72.3594 53.5156 70.5156" id="BitstreamVeraSans-Roman-53"/>
     <path d="
M6.20312 8.10938
Q6.20312 9.57812 6.5 10.8906
L13.7188 39.5938
L3.21875 39.5938
Q2.20312 39.5938 2.20312 40.9219
Q2.59375 43.1094 3.51562 43.1094
L14.5938 43.1094
L18.6094 59.4219
Q19 60.75 20.1719 61.6719
Q21.3438 62.5938 22.7969 62.5938
Q24.0781 62.5938 24.9219 61.8281
Q25.7812 61.0781 25.7812 59.8125
Q25.7812 59.5156 25.75 59.3438
Q25.7344 59.1875 25.6875 58.9844
L21.6875 43.1094
L31.9844 43.1094
Q33.0156 43.1094 33.0156 41.7969
Q32.9531 41.5469 32.8125 40.9531
Q32.6719 40.375 32.4219 39.9844
Q32.1719 39.5938 31.6875 39.5938
L20.7969 39.5938
L13.625 10.6875
Q12.8906 7.85938 12.8906 5.8125
Q12.8906 1.51562 15.8281 1.51562
Q20.2188 1.51562 23.6094 5.64062
Q27 9.76562 28.8125 14.7031
Q29.2031 15.2812 29.5938 15.2812
L30.8125 15.2812
Q31.2031 15.2812 31.4375 15.0156
Q31.6875 14.75 31.6875 14.4062
Q31.6875 14.2031 31.5938 14.1094
Q29.3906 8.0625 25.1875 3.46875
Q21 -1.125 15.5781 -1.125
Q11.625 -1.125 8.90625 1.45312
Q6.20312 4.04688 6.20312 8.10938" id="Cmmi10-74"/>
     <path d="
M18.1094 8.20312
L18.1094 -20.7969
L9.07812 -20.7969
L9.07812 54.6875
L18.1094 54.6875
L18.1094 46.3906
Q20.9531 51.2656 25.2656 53.625
Q29.5938 56 35.5938 56
Q45.5625 56 51.7812 48.0938
Q58.0156 40.1875 58.0156 27.2969
Q58.0156 14.4062 51.7812 6.48438
Q45.5625 -1.42188 35.5938 -1.42188
Q29.5938 -1.42188 25.2656 0.953125
Q20.9531 3.32812 18.1094 8.20312
M48.6875 27.2969
Q48.6875 37.2031 44.6094 42.8438
Q40.5312 48.4844 33.4062 48.4844
Q26.2656 48.4844 22.1875 42.8438
Q18.1094 37.2031 18.1094 27.2969
Q18.1094 17.3906 22.1875 11.75
Q26.2656 6.10938 33.4062 6.10938
Q40.5312 6.10938 44.6094 11.75
Q48.6875 17.3906 48.6875 27.2969" id="BitstreamVeraSans-Roman-70"/>
     <path d="
M48.6875 27.2969
Q48.6875 37.2031 44.6094 42.8438
Q40.5312 48.4844 33.4062 48.4844
Q26.2656 48.4844 22.1875 42.8438
Q18.1094 37.2031 18.1094 27.2969
Q18.1094 17.3906 22.1875 11.75
Q26.2656 6.10938 33.4062 6.10938
Q40.5312 6.10938 44.6094 11.75
Q48.6875 17.3906 48.6875 27.2969
M18.1094 46.3906
Q20.9531 51.2656 25.2656 53.625
Q29.5938 56 35.5938 56
Q45.5625 56 51.7812 48.0938
Q58.0156 40.1875 58.0156 27.2969
Q58.0156 14.4062 51.7812 6.48438
Q45.5625 -1.42188 35.5938 -1.42188
Q29.5938 -1.42188 25.2656 0.953125
Q20.9531 3.32812 18.1094 8.20312
L18.1094 0
L9.07812 0
L9.07812 75.9844
L18.1094 75.9844
z
" id="BitstreamVeraSans-Roman-62"/>
    </defs>
    <g transform="translate(401.674425 355.149848974)scale(0.12 -0.12)">
     <use transform="translate(0.0 21.66875)" xlink:href="#BitstreamVeraSans-Roman-53"/>
     <use transform="translate(63.4765625 21.66875)" xlink:href="#BitstreamVeraSans-Roman-65"/>
     <use transform="translate(125.0 21.66875)" xlink:href="#BitstreamVeraSans-Roman-70"/>
     <use transform="translate(188.4765625 21.66875)" xlink:href="#BitstreamVeraSans-Roman-74"/>
     <use transform="translate(227.685546875 21.66875)" xlink:href="#BitstreamVeraSans-Roman-65"/>
     <use transform="translate(289.208984375 21.66875)" xlink:href="#BitstreamVeraSans-Roman-6d"/>
     <use transform="translate(386.62109375 21.66875)" xlink:href="#BitstreamVeraSans-Roman-62"/>
     <use transform="translate(450.09765625 21.66875)" xlink:href="#BitstreamVeraSans-Roman-65"/>
     <use transform="translate(511.62109375 21.66875)" xlink:href="#BitstreamVeraSans-Roman-72"/>
     <use transform="translate(552.734375 21.66875)" xlink:href="#BitstreamVeraSans-Roman-20"/>
     <use transform="translate(584.521484375 21.66875)" xlink:href="#Cmr10-31"/>
     <use transform="translate(634.521484375 64.184375)scale(0.7)" xlink:href="#Cmmi10-73"/>
     <use transform="translate(667.265625 64.184375)scale(0.7)" xlink:href="#Cmmi10-74"/>
    </g>
   </g>
   <g id="patch_10">
    <path d="
M501.442 427.665
L501.442 396.085" style="fill:none;stroke:#000000;stroke-linecap:round;"/>
    <path d="
M499.042 400.885
L501.442 396.085
L503.842 400.885" style="fill:none;stroke:#000000;stroke-linecap:round;"/>
   </g>
   <g id="text_21">
    <!-- Black Monday -->
    <defs>
     <path d="
M45.4062 46.3906
L45.4062 75.9844
L54.3906 75.9844
L54.3906 0
L45.4062 0
L45.4062 8.20312
Q42.5781 3.32812 38.25 0.953125
Q33.9375 -1.42188 27.875 -1.42188
Q17.9688 -1.42188 11.7344 6.48438
Q5.51562 14.4062 5.51562 27.2969
Q5.51562 40.1875 11.7344 48.0938
Q17.9688 56 27.875 56
Q33.9375 56 38.25 53.625
Q42.5781 51.2656 45.4062 46.3906
M14.7969 27.2969
Q14.7969 17.3906 18.875 11.75
Q22.9531 6.10938 30.0781 6.10938
Q37.2031 6.10938 41.2969 11.75
Q45.4062 17.3906 45.4062 27.2969
Q45.4062 37.2031 41.2969 42.8438
Q37.2031 48.4844 30.0781 48.4844
Q22.9531 48.4844 18.875 42.8438
Q14.7969 37.2031 14.7969 27.2969" id="BitstreamVeraSans-Roman-64"/>
     <path d="
M30.6094 48.3906
Q23.3906 48.3906 19.1875 42.75
Q14.9844 37.1094 14.9844 27.2969
Q14.9844 17.4844 19.1562 11.8438
Q23.3438 6.20312 30.6094 6.20312
Q37.7969 6.20312 41.9844 11.8594
Q46.1875 17.5312 46.1875 27.2969
Q46.1875 37.0156 41.9844 42.7031
Q37.7969 48.3906 30.6094 48.3906
M30.6094 56
Q42.3281 56 49.0156 48.375
Q55.7188 40.7656 55.7188 27.2969
Q55.7188 13.875 49.0156 6.21875
Q42.3281 -1.42188 30.6094 -1.42188
Q18.8438 -1.42188 12.1719 6.21875
Q5.51562 13.875 5.51562 27.2969
Q5.51562 40.7656 12.1719 48.375
Q18.8438 56 30.6094 56" id="BitstreamVeraSans-Roman-6f"/>
    </defs>
    <g transform="translate(459.79215 440.784265945)scale(0.12 -0.12)">
     <use xlink:href="#BitstreamVeraSans-Roman-42"/>
     <use x="68.603515625" xlink:href="#BitstreamVeraSans-Roman-6c"/>
     <use x="96.38671875" xlink:href="#BitstreamVeraSans-Roman-61"/>
     <use x="157.666015625" xlink:href="#BitstreamVeraSans-Roman-63"/>
     <use x="212.646484375" xlink:href="#BitstreamVeraSans-Roman-6b"/>
     <use x="270.556640625" xlink:href="#BitstreamVeraSans-Roman-20"/>
     <use x="302.34375" xlink:href="#BitstreamVeraSans-Roman-4d"/>
     <use x="388.623046875" xlink:href="#BitstreamVeraSans-Roman-6f"/>
     <use x="449.8046875" xlink:href="#BitstreamVeraSans-Roman-6e"/>
     <use x="513.18359375" xlink:href="#BitstreamVeraSans-Roman-64"/>
     <use x="576.66015625" xlink:href="#BitstreamVeraSans-Roman-61"/>
     <use x="637.939453125" xlink:href="#BitstreamVeraSans-Roman-79"/>
    </g>
   </g>
   <g id="patch_11">
    <path d="
M581.237 279.642
L581.237 323.599" style="fill:none;stroke:#000000;stroke-linecap:round;"/>
    <path d="
M583.637 318.799
L581.237 323.599
L578.837 318.799" style="fill:none;stroke:#000000;stroke-linecap:round;"/>
   </g>
   <g id="text_22">
    <!-- Christmas -->
    <defs>
     <path d="
M64.4062 67.2812
L64.4062 56.8906
Q59.4219 61.5312 53.7812 63.8125
Q48.1406 66.1094 41.7969 66.1094
Q29.2969 66.1094 22.6562 58.4688
Q16.0156 50.8281 16.0156 36.375
Q16.0156 21.9688 22.6562 14.3281
Q29.2969 6.6875 41.7969 6.6875
Q48.1406 6.6875 53.7812 8.98438
Q59.4219 11.2812 64.4062 15.9219
L64.4062 5.60938
Q59.2344 2.09375 53.4375 0.328125
Q47.6562 -1.42188 41.2188 -1.42188
Q24.6562 -1.42188 15.125 8.70312
Q5.60938 18.8438 5.60938 36.375
Q5.60938 53.9531 15.125 64.0781
Q24.6562 74.2188 41.2188 74.2188
Q47.75 74.2188 53.5312 72.4844
Q59.3281 70.75 64.4062 67.2812" id="BitstreamVeraSans-Roman-43"/>
    </defs>
    <g transform="translate(551.61601875 275.476571467)scale(0.12 -0.12)">
     <use xlink:href="#BitstreamVeraSans-Roman-43"/>
     <use x="69.82421875" xlink:href="#BitstreamVeraSans-Roman-68"/>
     <use x="133.203125" xlink:href="#BitstreamVeraSans-Roman-72"/>
     <use x="174.31640625" xlink:href="#BitstreamVeraSans-Roman-69"/>
     <use x="202.099609375" xlink:href="#BitstreamVeraSans-Roman-73"/>
     <use x="254.19921875" xlink:href="#BitstreamVeraSans-Roman-74"/>
     <use x="293.408203125" xlink:href="#BitstreamVeraSans-Roman-6d"/>
     <use x="390.8203125" xlink:href="#BitstreamVeraSans-Roman-61"/>
     <use x="452.099609375" xlink:href="#BitstreamVeraSans-Roman-73"/>
    </g>
   </g>
   <g id="patch_12">
    <path d="
M641.977 365.842
L641.977 330.891" style="fill:none;stroke:#000000;stroke-linecap:round;"/>
    <path d="
M639.577 335.691
L641.977 330.891
L644.377 335.691" style="fill:none;stroke:#000000;stroke-linecap:round;"/>
   </g>
   <g id="text_23">
    <!-- Valentines Day -->
    <g transform="translate(597.2848125 378.959444489)scale(0.12 -0.12)">
     <use xlink:href="#BitstreamVeraSans-Roman-56"/>
     <use x="60.658203125" xlink:href="#BitstreamVeraSans-Roman-61"/>
     <use x="121.9375" xlink:href="#BitstreamVeraSans-Roman-6c"/>
     <use x="149.720703125" xlink:href="#BitstreamVeraSans-Roman-65"/>
     <use x="211.244140625" xlink:href="#BitstreamVeraSans-Roman-6e"/>
     <use x="274.623046875" xlink:href="#BitstreamVeraSans-Roman-74"/>
     <use x="313.83203125" xlink:href="#BitstreamVeraSans-Roman-69"/>
     <use x="341.615234375" xlink:href="#BitstreamVeraSans-Roman-6e"/>
     <use x="404.994140625" xlink:href="#BitstreamVeraSans-Roman-65"/>
     <use x="466.517578125" xlink:href="#BitstreamVeraSans-Roman-73"/>
     <use x="518.6171875" xlink:href="#BitstreamVeraSans-Roman-20"/>
     <use x="550.404296875" xlink:href="#BitstreamVeraSans-Roman-44"/>
     <use x="627.40625" xlink:href="#BitstreamVeraSans-Roman-61"/>
     <use x="688.685546875" xlink:href="#BitstreamVeraSans-Roman-79"/>
    </g>
   </g>
   <g id="patch_13">
    <path d="
M670.561 261.304
L670.561 306.161" style="fill:none;stroke:#000000;stroke-linecap:round;"/>
    <path d="
M672.961 301.361
L670.561 306.161
L668.161 301.361" style="fill:none;stroke:#000000;stroke-linecap:round;"/>
   </g>
   <g id="text_24">
    <!-- March Break -->
    <g transform="translate(633.0927375 257.134107582)scale(0.12 -0.12)">
     <use xlink:href="#BitstreamVeraSans-Roman-4d"/>
     <use x="86.279296875" xlink:href="#BitstreamVeraSans-Roman-61"/>
     <use x="147.55859375" xlink:href="#BitstreamVeraSans-Roman-72"/>
     <use x="186.421875" xlink:href="#BitstreamVeraSans-Roman-63"/>
     <use x="241.40234375" xlink:href="#BitstreamVeraSans-Roman-68"/>
     <use x="304.78125" xlink:href="#BitstreamVeraSans-Roman-20"/>
     <use x="336.568359375" xlink:href="#BitstreamVeraSans-Roman-42"/>
     <use x="405.171875" xlink:href="#BitstreamVeraSans-Roman-72"/>
     <use x="444.03515625" xlink:href="#BitstreamVeraSans-Roman-65"/>
     <use x="505.55859375" xlink:href="#BitstreamVeraSans-Roman-61"/>
     <use x="566.837890625" xlink:href="#BitstreamVeraSans-Roman-6b"/>
    </g>
   </g>
   <g id="patch_14">
    <path d="
M878.983 208.871
L878.983 166.755" style="fill:none;stroke:#000000;stroke-linecap:round;"/>
    <path d="
M876.583 171.555
L878.983 166.755
L881.383 171.555" style="fill:none;stroke:#000000;stroke-linecap:round;"/>
   </g>
   <g id="text_25">
    <!-- September $1^{st}$ -->
    <g transform="translate(836.38258125 225.82538215)scale(0.12 -0.12)">
     <use transform="translate(0.0 21.66875)" xlink:href="#BitstreamVeraSans-Roman-53"/>
     <use transform="translate(63.4765625 21.66875)" xlink:href="#BitstreamVeraSans-Roman-65"/>
     <use transform="translate(125.0 21.66875)" xlink:href="#BitstreamVeraSans-Roman-70"/>
     <use transform="translate(188.4765625 21.66875)" xlink:href="#BitstreamVeraSans-Roman-74"/>
     <use transform="translate(227.685546875 21.66875)" xlink:href="#BitstreamVeraSans-Roman-65"/>
     <use transform="translate(289.208984375 21.66875)" xlink:href="#BitstreamVeraSans-Roman-6d"/>
     <use transform="translate(386.62109375 21.66875)" xlink:href="#BitstreamVeraSans-Roman-62"/>
     <use transform="translate(450.09765625 21.66875)" xlink:href="#BitstreamVeraSans-Roman-65"/>
     <use transform="translate(511.62109375 21.66875)" xlink:href="#BitstreamVeraSans-Roman-72"/>
     <use transform="translate(552.734375 21.66875)" xlink:href="#BitstreamVeraSans-Roman-20"/>
     <use transform="translate(584.521484375 21.66875)" xlink:href="#Cmr10-31"/>
     <use transform="translate(634.521484375 64.184375)scale(0.7)" xlink:href="#Cmmi10-73"/>
     <use transform="translate(667.265625 64.184375)scale(0.7)" xlink:href="#Cmmi10-74"/>
    </g>
   </g>
   <g id="patch_15">
    <path d="
M936.15 117.912
L936.15 167.602" style="fill:none;stroke:#000000;stroke-linecap:round;"/>
    <path d="
M938.55 162.802
L936.15 167.602
L933.75 162.802" style="fill:none;stroke:#000000;stroke-linecap:round;"/>
   </g>
   <g id="text_26">
    <!-- Black Monday -->
    <g transform="translate(894.50030625 111.418053321)scale(0.12 -0.12)">
     <use xlink:href="#BitstreamVeraSans-Roman-42"/>
     <use x="68.603515625" xlink:href="#BitstreamVeraSans-Roman-6c"/>
     <use x="96.38671875" xlink:href="#BitstreamVeraSans-Roman-61"/>
     <use x="157.666015625" xlink:href="#BitstreamVeraSans-Roman-63"/>
     <use x="212.646484375" xlink:href="#BitstreamVeraSans-Roman-6b"/>
     <use x="270.556640625" xlink:href="#BitstreamVeraSans-Roman-20"/>
     <use x="302.34375" xlink:href="#BitstreamVeraSans-Roman-4d"/>
     <use x="388.623046875" xlink:href="#BitstreamVeraSans-Roman-6f"/>
     <use x="449.8046875" xlink:href="#BitstreamVeraSans-Roman-6e"/>
     <use x="513.18359375" xlink:href="#BitstreamVeraSans-Roman-64"/>
     <use x="576.66015625" xlink:href="#BitstreamVeraSans-Roman-61"/>
     <use x="637.939453125" xlink:href="#BitstreamVeraSans-Roman-79"/>
    </g>
   </g>
   <g id="patch_16">
    <path d="
M1015.95 182.824
L1015.95 137.905" style="fill:none;stroke:#000000;stroke-linecap:round;"/>
    <path d="
M1013.55 142.705
L1015.95 137.905
L1018.35 142.705" style="fill:none;stroke:#000000;stroke-linecap:round;"/>
   </g>
   <g id="text_27">
    <!-- Christmas -->
    <g transform="translate(986.324175 195.94492737)scale(0.12 -0.12)">
     <use xlink:href="#BitstreamVeraSans-Roman-43"/>
     <use x="69.82421875" xlink:href="#BitstreamVeraSans-Roman-68"/>
     <use x="133.203125" xlink:href="#BitstreamVeraSans-Roman-72"/>
     <use x="174.31640625" xlink:href="#BitstreamVeraSans-Roman-69"/>
     <use x="202.099609375" xlink:href="#BitstreamVeraSans-Roman-73"/>
     <use x="254.19921875" xlink:href="#BitstreamVeraSans-Roman-74"/>
     <use x="293.408203125" xlink:href="#BitstreamVeraSans-Roman-6d"/>
     <use x="390.8203125" xlink:href="#BitstreamVeraSans-Roman-61"/>
     <use x="452.099609375" xlink:href="#BitstreamVeraSans-Roman-73"/>
    </g>
   </g>
   <g id="text_28">
    <!-- Simulation of Stock ABC -->
    <defs>
     <path d="
M8.5 21.5781
L8.5 54.6875
L17.4844 54.6875
L17.4844 21.9219
Q17.4844 14.1562 20.5 10.2656
Q23.5312 6.39062 29.5938 6.39062
Q36.8594 6.39062 41.0781 11.0312
Q45.3125 15.6719 45.3125 23.6875
L45.3125 54.6875
L54.2969 54.6875
L54.2969 0
L45.3125 0
L45.3125 8.40625
Q42.0469 3.42188 37.7188 1
Q33.4062 -1.42188 27.6875 -1.42188
Q18.2656 -1.42188 13.375 4.4375
Q8.5 10.2969 8.5 21.5781" id="BitstreamVeraSans-Roman-75"/>
     <path d="
M37.1094 75.9844
L37.1094 68.5
L28.5156 68.5
Q23.6875 68.5 21.7969 66.5469
Q19.9219 64.5938 19.9219 59.5156
L19.9219 54.6875
L34.7188 54.6875
L34.7188 47.7031
L19.9219 47.7031
L19.9219 0
L10.8906 0
L10.8906 47.7031
L2.29688 47.7031
L2.29688 54.6875
L10.8906 54.6875
L10.8906 58.5
Q10.8906 67.625 15.1406 71.7969
Q19.3906 75.9844 28.6094 75.9844
z
" id="BitstreamVeraSans-Roman-66"/>
     <path d="
M34.1875 63.1875
L20.7969 26.9062
L47.6094 26.9062
z

M28.6094 72.9062
L39.7969 72.9062
L67.5781 0
L57.3281 0
L50.6875 18.7031
L17.8281 18.7031
L11.1875 0
L0.78125 0
z
" id="BitstreamVeraSans-Roman-41"/>
    </defs>
    <g transform="translate(543.607875 38.89795)scale(0.144 -0.144)">
     <use xlink:href="#BitstreamVeraSans-Roman-53"/>
     <use x="63.4765625" xlink:href="#BitstreamVeraSans-Roman-69"/>
     <use x="91.259765625" xlink:href="#BitstreamVeraSans-Roman-6d"/>
     <use x="188.671875" xlink:href="#BitstreamVeraSans-Roman-75"/>
     <use x="252.05078125" xlink:href="#BitstreamVeraSans-Roman-6c"/>
     <use x="279.833984375" xlink:href="#BitstreamVeraSans-Roman-61"/>
     <use x="341.11328125" xlink:href="#BitstreamVeraSans-Roman-74"/>
     <use x="380.322265625" xlink:href="#BitstreamVeraSans-Roman-69"/>
     <use x="408.10546875" xlink:href="#BitstreamVeraSans-Roman-6f"/>
     <use x="469.287109375" xlink:href="#BitstreamVeraSans-Roman-6e"/>
     <use x="532.666015625" xlink:href="#BitstreamVeraSans-Roman-20"/>
     <use x="564.453125" xlink:href="#BitstreamVeraSans-Roman-6f"/>
     <use x="625.634765625" xlink:href="#BitstreamVeraSans-Roman-66"/>
     <use x="660.83984375" xlink:href="#BitstreamVeraSans-Roman-20"/>
     <use x="692.626953125" xlink:href="#BitstreamVeraSans-Roman-53"/>
     <use x="756.103515625" xlink:href="#BitstreamVeraSans-Roman-74"/>
     <use x="795.3125" xlink:href="#BitstreamVeraSans-Roman-6f"/>
     <use x="856.494140625" xlink:href="#BitstreamVeraSans-Roman-63"/>
     <use x="911.474609375" xlink:href="#BitstreamVeraSans-Roman-6b"/>
     <use x="969.384765625" xlink:href="#BitstreamVeraSans-Roman-20"/>
     <use x="1001.171875" xlink:href="#BitstreamVeraSans-Roman-41"/>
     <use x="1069.58007812" xlink:href="#BitstreamVeraSans-Roman-42"/>
     <use x="1136.43359375" xlink:href="#BitstreamVeraSans-Roman-43"/>
    </g>
    <!-- $t=730\,(days),\,\sigma=0.2,\,r=0.04,\,S_{0}=1000.0,\,mo=True,\,bf=True$ -->
    <defs>
     <path d="
M31 -24.8125
Q25.4375 -20.4062 21.4062 -14.7188
Q17.3906 -9.03125 14.8125 -2.57812
Q12.25 3.85938 10.9844 10.8906
Q9.71875 17.9219 9.71875 25
Q9.71875 32.1719 10.9844 39.2031
Q12.25 46.2344 14.8594 52.7344
Q17.4844 59.2344 21.5312 64.8906
Q25.5938 70.5625 31 74.8125
Q31 75 31.5 75
L32.4219 75
Q32.7188 75 32.9531 74.7344
Q33.2031 74.4688 33.2031 74.125
Q33.2031 73.6875 33.0156 73.4844
Q28.125 68.7031 24.875 63.2344
Q21.625 57.7656 19.6406 51.5781
Q17.6719 45.4062 16.7969 38.7812
Q15.9219 32.1719 15.9219 25
Q15.9219 -6.78125 32.9062 -23.2969
Q33.2031 -23.5781 33.2031 -24.125
Q33.2031 -24.3594 32.9375 -24.6719
Q32.6719 -25 32.4219 -25
L31.5 -25
Q31 -25 31 -24.8125" id="Cmr10-28"/>
     <path d="
M6.5 -25
Q5.60938 -25 5.60938 -24.125
Q5.60938 -23.6875 5.8125 -23.4844
Q22.9062 -6.78125 22.9062 25
Q22.9062 56.7812 6 73.2969
Q5.60938 73.5312 5.60938 74.125
Q5.60938 74.4688 5.875 74.7344
Q6.15625 75 6.5 75
L7.42188 75
Q7.71875 75 7.90625 74.8125
Q15.0938 69.1406 19.875 61.0312
Q24.6562 52.9375 26.875 43.75
Q29.1094 34.5781 29.1094 25
Q29.1094 17.9219 27.9062 11.0625
Q26.7031 4.20312 24.0938 -2.45312
Q21.4844 -9.125 17.4844 -14.7656
Q13.4844 -20.4062 7.90625 -24.8125
Q7.71875 -25 7.42188 -25
z
" id="Cmr10-29"/>
     <path d="
M17.3906 -1.125
Q11.0781 -1.125 7.4375 3.64062
Q3.8125 8.40625 3.8125 14.8906
Q3.8125 21.2969 7.125 28.1719
Q10.4531 35.0625 16.0938 39.625
Q21.7344 44.1875 28.2188 44.1875
Q31.2031 44.1875 33.5469 42.5781
Q35.8906 40.9688 37.2031 38.1875
Q38.3281 42.1875 41.6094 42.1875
Q42.875 42.1875 43.7188 41.4219
Q44.5781 40.6719 44.5781 39.4062
Q44.5781 39.1094 44.5469 38.9531
Q44.5312 38.8125 44.4844 38.625
L37.5 10.6875
Q36.8125 7.71875 36.8125 5.8125
Q36.8125 1.51562 39.7031 1.51562
Q42.8281 1.51562 44.4531 5.48438
Q46.0938 9.46875 47.2188 14.7031
Q47.4062 15.2812 48 15.2812
L49.2188 15.2812
Q49.6094 15.2812 49.8438 14.9375
Q50.0938 14.5938 50.0938 14.3125
Q48.3438 7.32812 46.2656 3.09375
Q44.1875 -1.125 39.5 -1.125
Q36.1406 -1.125 33.5469 0.84375
Q30.9531 2.82812 30.3281 6.10938
Q23.875 -1.125 17.3906 -1.125
M17.4844 1.51562
Q21.0938 1.51562 24.4844 4.21875
Q27.875 6.9375 30.3281 10.5938
Q30.4219 10.6875 30.4219 10.8906
L35.7969 32.625
L35.8906 32.9062
Q35.2969 36.4688 33.3125 39.0312
Q31.3438 41.6094 27.9844 41.6094
Q24.6094 41.6094 21.7031 38.8438
Q18.7969 36.0781 16.7969 32.3281
Q14.8438 28.3281 13.0625 21.3438
Q11.2812 14.3594 11.2812 10.5
Q11.2812 7.03125 12.7656 4.26562
Q14.2656 1.51562 17.4844 1.51562" id="Cmmi10-61"/>
     <path d="
M17.2812 -1.125
Q11.2344 -1.125 7.85938 3.60938
Q4.5 8.34375 4.5 14.7031
Q4.5 15.625 4.95312 18.3281
Q5.42188 21.0469 5.42188 21.6875
L15.0938 60.5
Q15.4844 62.2031 15.5781 63.1875
Q15.5781 64.7969 9.07812 64.7969
Q8.10938 64.7969 8.10938 66.1094
Q8.15625 66.3594 8.32812 66.9844
Q8.5 67.625 8.76562 67.9688
Q9.03125 68.3125 9.51562 68.3125
L23 69.3906
Q24.2188 69.3906 24.2188 68.1094
L16.7969 38.625
Q22.4688 44.1875 28.2188 44.1875
Q32.4688 44.1875 35.5156 41.9375
Q38.5781 39.7031 40.0938 36.0312
Q41.6094 32.375 41.6094 28.2188
Q41.6094 23.3906 39.7188 18.2344
Q37.8438 13.0938 34.5156 8.67188
Q31.2031 4.25 26.75 1.5625
Q22.3125 -1.125 17.2812 -1.125
M17.4844 1.51562
Q20.9062 1.51562 23.875 4.375
Q26.8594 7.23438 28.7188 10.7969
Q30.7188 14.7969 32.4531 21.6562
Q34.1875 28.5156 34.1875 32.625
Q34.1875 36.1875 32.6875 38.8906
Q31.2031 41.6094 27.9844 41.6094
Q24.3594 41.6094 21.0625 38.9375
Q17.7812 36.2812 15.2812 32.625
L12.5 21.2969
Q10.8906 14.9844 10.7969 11.1875
Q10.7969 7.42188 12.4219 4.46875
Q14.0625 1.51562 17.4844 1.51562" id="Cmmi10-62"/>
     <path d="
M20.125 -1.125
Q15.3281 -1.125 11.7344 1.35938
Q8.15625 3.85938 6.26562 8.07812
Q4.39062 12.3125 4.39062 17
Q4.39062 24.125 7.98438 30.3906
Q11.5781 36.6719 17.7188 40.4219
Q23.875 44.1875 30.9062 44.1875
Q35.2031 44.1875 38.4062 41.9688
Q41.6094 39.75 41.6094 35.5938
Q41.6094 29.8281 37.0156 27.0156
Q32.4219 24.2188 26.6562 23.5625
Q20.9062 22.9062 13.9219 22.9062
L13.625 22.9062
Q12.0156 16.9375 12.0156 12.7031
Q12.0156 8.25 14.0625 4.875
Q16.1094 1.51562 20.3125 1.51562
Q26.2656 1.51562 31.75 4.25
Q37.25 6.98438 40.7188 11.8125
Q41.0156 12.1094 41.5 12.1094
Q42 12.1094 42.5 11.5469
Q43.0156 10.9844 43.0156 10.5
Q43.0156 10.1094 42.8281 9.90625
Q39.1562 4.78125 32.9531 1.82812
Q26.7656 -1.125 20.125 -1.125
M14.2031 25.4844
Q20.0156 25.4844 24.9531 26.0156
Q29.8906 26.5625 33.8906 28.7344
Q37.8906 30.9062 37.8906 35.5
Q37.8906 37.3594 36.8594 38.75
Q35.8438 40.1406 34.2031 40.875
Q32.5625 41.6094 30.8125 41.6094
Q26.5625 41.6094 23.1719 39.3125
Q19.7812 37.0156 17.5781 33.3281
Q15.375 29.6406 14.2031 25.4844" id="Cmmi10-65"/>
     <path d="
M17.3906 -1.125
Q11.0781 -1.125 7.4375 3.64062
Q3.8125 8.40625 3.8125 14.8906
Q3.8125 21.2969 7.125 28.1719
Q10.4531 35.0625 16.0938 39.625
Q21.7344 44.1875 28.2188 44.1875
Q31.1562 44.1875 33.5156 42.5469
Q35.8906 40.9219 37.2031 38.1875
L42.8281 60.5
Q43.2188 62.2031 43.3125 63.1875
Q43.3125 64.7969 36.8125 64.7969
Q35.7969 64.7969 35.7969 66.1094
Q35.8438 66.3594 36.0156 66.9844
Q36.1875 67.625 36.4531 67.9688
Q36.7188 68.3125 37.2031 68.3125
L50.6875 69.3906
Q51.9062 69.3906 51.9062 68.1094
L37.5 10.5938
Q36.8125 8.9375 36.8125 5.8125
Q36.8125 1.51562 39.7031 1.51562
Q42.8281 1.51562 44.4531 5.48438
Q46.0938 9.46875 47.2188 14.7031
Q47.4062 15.2812 48 15.2812
L49.2188 15.2812
Q49.6094 15.2812 49.8438 14.9375
Q50.0938 14.5938 50.0938 14.3125
Q48.3438 7.32812 46.2656 3.09375
Q44.1875 -1.125 39.5 -1.125
Q36.1406 -1.125 33.5469 0.84375
Q30.9531 2.82812 30.3281 6.10938
Q23.875 -1.125 17.3906 -1.125
M17.4844 1.51562
Q21.0938 1.51562 24.4844 4.21875
Q27.875 6.9375 30.3281 10.5938
Q30.4219 10.6875 30.4219 10.9844
L35.8906 33.0156
Q35.2969 36.5312 33.2969 39.0625
Q31.2969 41.6094 27.9844 41.6094
Q24.6094 41.6094 21.7031 38.8438
Q18.7969 36.0781 16.7969 32.3281
Q14.8438 28.3281 13.0625 21.3438
Q11.2812 14.3594 11.2812 10.5
Q11.2812 7.03125 12.7656 4.26562
Q14.2656 1.51562 17.4844 1.51562" id="Cmmi10-64"/>
     <path d="
M7.51562 13.2812
Q6.6875 13.2812 6.14062 13.9062
Q5.60938 14.5469 5.60938 15.2812
Q5.60938 16.1094 6.14062 16.6875
Q6.6875 17.2812 7.51562 17.2812
L70.3125 17.2812
Q71.0469 17.2812 71.5781 16.6875
Q72.125 16.1094 72.125 15.2812
Q72.125 14.5469 71.5781 13.9062
Q71.0469 13.2812 70.3125 13.2812
z

M7.51562 32.7188
Q6.6875 32.7188 6.14062 33.2969
Q5.60938 33.8906 5.60938 34.7188
Q5.60938 35.4531 6.14062 36.0781
Q6.6875 36.7188 7.51562 36.7188
L70.3125 36.7188
Q71.0469 36.7188 71.5781 36.0781
Q72.125 35.4531 72.125 34.7188
Q72.125 33.8906 71.5781 33.2969
Q71.0469 32.7188 70.3125 32.7188
z
" id="Cmr10-3d"/>
     <path d="
M9.90625 -18.0156
Q9.90625 -17.5781 10.2969 -17.1875
Q13.9219 -13.7188 15.9219 -9.17188
Q17.9219 -4.64062 17.9219 0.390625
L17.9219 1.60938
Q16.3125 0 13.9219 0
Q11.625 0 10.0156 1.60938
Q8.40625 3.21875 8.40625 5.51562
Q8.40625 7.85938 10.0156 9.42188
Q11.625 10.9844 13.9219 10.9844
Q17.4844 10.9844 19 7.6875
Q20.5156 4.39062 20.5156 0.390625
Q20.5156 -5.17188 18.2812 -10.1719
Q16.0625 -15.1875 12.0156 -19.1875
Q11.625 -19.3906 11.375 -19.3906
Q10.8906 -19.3906 10.3906 -18.9375
Q9.90625 -18.5 9.90625 -18.0156" id="Cmmi10-3b"/>
     <path d="
M8.40625 5.51562
Q8.40625 7.76562 10.0625 9.375
Q11.7188 10.9844 13.9219 10.9844
Q15.2812 10.9844 16.5938 10.25
Q17.9219 9.51562 18.6562 8.20312
Q19.3906 6.89062 19.3906 5.51562
Q19.3906 3.32812 17.7656 1.65625
Q16.1562 0 13.9219 0
Q11.7188 0 10.0625 1.65625
Q8.40625 3.32812 8.40625 5.51562" id="Cmmi10-3a"/>
     <path d="
M20.125 -1.125
Q15.375 -1.125 11.6875 1.125
Q8.01562 3.375 6 7.17188
Q4 10.9844 4 15.8281
Q4 22.6094 7.78125 29.25
Q11.5781 35.8906 17.8438 40.0312
Q24.125 44.1875 31 44.1875
Q34.7188 44.1875 37.625 42.9219
Q40.5312 41.6562 42.6719 39.3594
Q44.8281 37.0625 45.9688 33.9844
Q47.125 30.9062 47.125 27.2969
Q47.125 22.0781 44.9219 17.0156
Q42.7188 11.9688 38.8906 7.84375
Q35.0625 3.71875 30.125 1.29688
Q25.2031 -1.125 20.125 -1.125
M20.3125 1.51562
Q24.75 1.51562 28.4375 4.53125
Q32.125 7.5625 34.4844 12.1719
Q36.8594 16.7969 38.125 21.9219
Q39.4062 27.0469 39.4062 31.2031
Q39.4062 35.5469 37.2344 38.5781
Q35.0625 41.6094 30.8125 41.6094
Q24.9531 41.6094 20.5469 36.5938
Q16.1562 31.5938 13.9375 24.625
Q11.7188 17.6719 11.7188 11.9219
Q11.7188 7.5625 13.9375 4.53125
Q16.1562 1.51562 20.3125 1.51562" id="Cmmi10-6f"/>
     <path d="
M18.7031 -1.125
Q14.2656 -1.125 10.8125 1
Q7.375 3.125 5.48438 6.73438
Q3.60938 10.3594 3.60938 14.7031
Q3.60938 19.3438 5.70312 24.4688
Q7.8125 29.5938 11.4531 33.8438
Q15.0938 38.0938 19.6719 40.5938
Q24.2656 43.1094 29.1094 43.1094
L54.2969 43.1094
Q55.3281 43.1094 56.0469 42.4219
Q56.7812 41.75 56.7812 40.5781
Q56.7812 39.1094 55.7344 38.0156
Q54.6875 36.9219 53.2188 36.9219
L41.0156 36.9219
Q43.8906 32.625 43.8906 26.5156
Q43.8906 21.4844 41.9375 16.5938
Q39.9844 11.7188 36.5156 7.6875
Q33.0625 3.65625 28.4375 1.26562
Q23.8281 -1.125 18.7031 -1.125
M18.7969 1.51562
Q24.2656 1.51562 28.4844 5.78125
Q32.7188 10.0625 34.9531 16.2344
Q37.2031 22.4062 37.2031 27.6875
Q37.2031 31.9844 34.8281 34.4531
Q32.4688 36.9219 28.2188 36.9219
Q22.4062 36.9219 18.3281 33.0156
Q14.2656 29.1094 12.2344 23.1875
Q10.2031 17.2812 10.2031 11.8125
Q10.2031 7.51562 12.4688 4.51562
Q14.75 1.51562 18.7969 1.51562" id="Cmmi10-be"/>
     <path d="
M9.71875 -16.5
Q11.5781 -17.9219 14.2031 -17.9219
Q17.7812 -17.9219 20.0156 -10.0156
Q20.9531 -6.20312 25.0938 15.0938
L29.6875 39.5938
L21.0938 39.5938
Q20.125 39.5938 20.125 40.9219
Q20.5156 43.1094 21.3906 43.1094
L30.3281 43.1094
L31.5 49.6094
Q32.0781 52.6406 32.5625 54.8125
Q33.0625 56.9844 33.625 58.8281
Q34.1875 60.6875 35.2969 62.9844
Q37.0156 66.2656 39.9219 68.3906
Q42.8281 70.5156 46.1875 70.5156
Q48.3906 70.5156 50.4688 69.7031
Q52.5469 68.8906 53.8594 67.2812
Q55.1719 65.6719 55.1719 63.4844
Q55.1719 60.9375 53.4844 59.0469
Q51.8125 57.1719 49.4219 57.1719
Q47.7969 57.1719 46.6562 58.1719
Q45.5156 59.1875 45.5156 60.7969
Q45.5156 62.9844 47 64.625
Q48.4844 66.2656 50.6875 66.5
Q48.8281 67.9219 46.0938 67.9219
Q44.5781 67.9219 43.2344 66.5
Q41.8906 65.0938 41.5 63.4844
Q40.875 60.9375 38.7188 49.7031
L37.5 43.1094
L47.7969 43.1094
Q48.7812 43.1094 48.7812 41.7969
Q48.7344 41.5469 48.5781 40.9375
Q48.4375 40.3281 48.1719 39.9531
Q47.9062 39.5938 47.5156 39.5938
L36.8125 39.5938
L32.1719 15.1875
Q31.2969 9.85938 30.1406 4.35938
Q29 -1.125 26.9219 -6.90625
Q24.8594 -12.7031 21.625 -16.6094
Q18.4062 -20.5156 14.0156 -20.5156
Q10.6406 -20.5156 7.98438 -18.5781
Q5.32812 -16.6562 5.32812 -13.4844
Q5.32812 -10.9375 6.95312 -9.04688
Q8.59375 -7.17188 11.0781 -7.17188
Q12.75 -7.17188 13.8594 -8.17188
Q14.9844 -9.1875 14.9844 -10.7969
Q14.9844 -12.9375 13.3906 -14.7188
Q11.8125 -16.5 9.71875 -16.5" id="Cmmi10-66"/>
     <path d="
M9.51562 7.71875
Q11.8594 4.29688 15.8125 2.64062
Q19.7812 0.984375 24.3125 0.984375
Q30.125 0.984375 32.5625 5.9375
Q35.0156 10.8906 35.0156 17.1875
Q35.0156 20.0156 34.5 22.8438
Q33.9844 25.6875 32.7656 28.125
Q31.5469 30.5625 29.4219 32.0312
Q27.2969 33.5 24.2188 33.5
L17.5781 33.5
Q16.7031 33.5 16.7031 34.4219
L16.7031 35.2969
Q16.7031 36.0781 17.5781 36.0781
L23.0938 36.5312
Q26.6094 36.5312 28.9219 39.1562
Q31.25 41.7969 32.3281 45.5781
Q33.4062 49.3594 33.4062 52.7812
Q33.4062 57.5625 31.1562 60.6406
Q28.9062 63.7188 24.3125 63.7188
Q20.5156 63.7188 17.0469 62.2812
Q13.5781 60.8438 11.5312 57.9062
Q11.7188 57.9531 11.8594 57.9844
Q12.0156 58.0156 12.2031 58.0156
Q14.4531 58.0156 15.9688 56.4531
Q17.4844 54.8906 17.4844 52.6875
Q17.4844 50.5312 15.9688 48.9688
Q14.4531 47.4062 12.2031 47.4062
Q10.0156 47.4062 8.45312 48.9688
Q6.89062 50.5312 6.89062 52.6875
Q6.89062 56.9844 9.46875 60.1562
Q12.0625 63.3281 16.1406 64.9688
Q20.2188 66.6094 24.3125 66.6094
Q27.3438 66.6094 30.7031 65.7031
Q34.0781 64.7969 36.8125 63.1094
Q39.5469 61.4219 41.2812 58.7812
Q43.0156 56.1562 43.0156 52.7812
Q43.0156 48.5781 41.1406 45.0156
Q39.2656 41.4531 35.9844 38.8594
Q32.7188 36.2812 28.8125 35.0156
Q33.1562 34.1875 37.0625 31.7344
Q40.9688 29.2969 43.3281 25.4844
Q45.7031 21.6875 45.7031 17.2812
Q45.7031 11.7656 42.6719 7.29688
Q39.6562 2.82812 34.7188 0.3125
Q29.7812 -2.20312 24.3125 -2.20312
Q19.625 -2.20312 14.9062 -0.40625
Q10.2031 1.375 7.20312 4.9375
Q4.20312 8.5 4.20312 13.4844
Q4.20312 15.9688 5.85938 17.625
Q7.51562 19.2812 10.0156 19.2812
Q11.625 19.2812 12.9688 18.5312
Q14.3125 17.7812 15.0625 16.4062
Q15.8281 15.0469 15.8281 13.4844
Q15.8281 11.0312 14.1094 9.375
Q12.4062 7.71875 10.0156 7.71875
z
" id="Cmr10-33"/>
     <path d="
M4.98438 0
L4.98438 2.6875
Q4.98438 2.9375 5.17188 3.21875
L20.7031 20.4062
Q24.2188 24.2188 26.4062 26.7969
Q28.6094 29.3906 30.75 32.7656
Q32.9062 36.1406 34.1562 39.625
Q35.4062 43.1094 35.4062 47.0156
Q35.4062 51.125 33.8906 54.8594
Q32.375 58.5938 29.375 60.8438
Q26.375 63.0938 22.125 63.0938
Q17.7812 63.0938 14.3125 60.4688
Q10.8438 57.8594 9.42188 53.7188
Q9.8125 53.8125 10.5 53.8125
Q12.75 53.8125 14.3281 52.2969
Q15.9219 50.7812 15.9219 48.3906
Q15.9219 46.0938 14.3281 44.5
Q12.75 42.9219 10.5 42.9219
Q8.15625 42.9219 6.5625 44.5469
Q4.98438 46.1875 4.98438 48.3906
Q4.98438 52.1562 6.39062 55.4375
Q7.8125 58.7344 10.4688 61.2969
Q13.1406 63.875 16.4844 65.2344
Q19.8281 66.6094 23.5781 66.6094
Q29.2969 66.6094 34.2188 64.1875
Q39.1562 61.7656 42.0312 57.3438
Q44.9219 52.9375 44.9219 47.0156
Q44.9219 42.6719 43.0156 38.7656
Q41.1094 34.8594 38.125 31.6562
Q35.1562 28.4688 30.5156 24.4062
Q25.875 20.3594 24.4219 19
L13.0938 8.10938
L22.7031 8.10938
Q29.7812 8.10938 34.5469 8.21875
Q39.3125 8.34375 39.5938 8.59375
Q40.7656 9.85938 42 17.8281
L44.9219 17.8281
L42.0938 0
z
" id="Cmr10-32"/>
     <path d="
M25 -2.20312
Q12.75 -2.20312 8.32812 7.875
Q3.90625 17.9688 3.90625 31.8906
Q3.90625 40.5781 5.48438 48.2344
Q7.07812 55.9062 11.7812 61.25
Q16.5 66.6094 25 66.6094
Q31.5938 66.6094 35.7812 63.375
Q39.9844 60.1562 42.1875 55.0469
Q44.3906 49.9531 45.1875 44.1094
Q46 38.2812 46 31.8906
Q46 23.2969 44.4062 15.7969
Q42.8281 8.29688 38.1875 3.04688
Q33.5469 -2.20312 25 -2.20312
M25 0.390625
Q30.5625 0.390625 33.2969 6.09375
Q36.0312 11.8125 36.6719 18.75
Q37.3125 25.6875 37.3125 33.5
Q37.3125 41.0156 36.6719 47.3594
Q36.0312 53.7188 33.3125 58.8594
Q30.6094 64.0156 25 64.0156
Q19.3438 64.0156 16.6094 58.8281
Q13.875 53.6562 13.2344 47.3281
Q12.5938 41.0156 12.5938 33.5
Q12.5938 27.9375 12.8594 23
Q13.1406 18.0625 14.3125 12.8125
Q15.4844 7.5625 18.0938 3.96875
Q20.7031 0.390625 25 0.390625" id="Cmr10-30"/>
     <path d="
M17.3906 2.59375
Q17.3906 8.15625 18.3594 13.4688
Q19.3438 18.7969 21.2188 24
Q23.0938 29.2031 25.75 34.2031
Q28.4219 39.2031 31.5938 43.6094
L40.7188 56.2969
L29.2969 56.2969
Q11.5312 56.2969 10.9844 55.8125
Q9.67188 54.2031 8.5 46.5781
L5.60938 46.5781
L8.89062 67.5781
L11.8125 67.5781
L11.8125 67.2812
Q11.8125 65.4844 17.9219 64.9375
Q24.0312 64.4062 29.8906 64.4062
L48.4844 64.4062
L48.4844 61.8125
Q48.4844 61.7188 48.4531 61.6719
Q48.4375 61.625 48.3906 61.5312
L34.625 42.1875
Q29.5469 34.6719 28.2656 25.4844
Q27 16.3125 27 2.59375
Q27 0.640625 25.5781 -0.78125
Q24.1719 -2.20312 22.2188 -2.20312
Q20.2188 -2.20312 18.7969 -0.78125
Q17.3906 0.640625 17.3906 2.59375" id="Cmr10-37"/>
     <path d="
M7.71875 1.70312
Q7.71875 2.29688 7.8125 2.59375
L15.2812 32.4219
Q16.0156 35.2031 16.0156 37.3125
Q16.0156 41.6094 13.0938 41.6094
Q9.96875 41.6094 8.45312 37.8594
Q6.9375 34.125 5.51562 28.4219
Q5.51562 28.125 5.21875 27.9531
Q4.9375 27.7812 4.6875 27.7812
L3.51562 27.7812
Q3.17188 27.7812 2.92188 28.1406
Q2.6875 28.5156 2.6875 28.8125
Q3.76562 33.1562 4.76562 36.1719
Q5.76562 39.2031 7.89062 41.6875
Q10.0156 44.1875 13.1875 44.1875
Q16.9375 44.1875 19.8125 41.8125
Q22.7031 39.4531 22.7031 35.7969
Q25.6875 39.7031 29.6875 41.9375
Q33.6875 44.1875 38.1875 44.1875
Q42.9219 44.1875 46.3594 41.7656
Q49.8125 39.3594 49.8125 34.9062
Q52.875 39.2656 57 41.7188
Q61.1406 44.1875 66.0156 44.1875
Q71.1875 44.1875 74.3281 41.375
Q77.4844 38.5781 77.4844 33.4062
Q77.4844 29.2969 75.6562 23.4844
Q73.8281 17.6719 71.0938 10.5
Q69.6719 7.03125 69.6719 4.5
Q69.6719 1.51562 72.0156 1.51562
Q75.9219 1.51562 78.5156 5.70312
Q81.1094 9.90625 82.1719 14.7031
Q82.4688 15.2812 83.0156 15.2812
L84.1875 15.2812
Q84.5781 15.2812 84.8438 15.0156
Q85.1094 14.75 85.1094 14.4062
Q85.1094 14.3125 85.0156 14.1094
Q83.6406 8.45312 80.25 3.65625
Q76.8594 -1.125 71.7812 -1.125
Q68.2656 -1.125 65.7656 1.29688
Q63.2812 3.71875 63.2812 7.17188
Q63.2812 8.9375 64.1094 11.0781
Q66.9375 18.6094 68.8125 24.5156
Q70.7031 30.4219 70.7031 34.9062
Q70.7031 37.7031 69.5781 39.6562
Q68.4531 41.6094 65.8281 41.6094
Q60.3594 41.6094 56.3438 38.25
Q52.3438 34.9062 49.4219 29.3906
Q49.2188 28.4219 49.125 27.875
L42.6719 2.20312
Q42.3281 0.828125 41.125 -0.140625
Q39.9375 -1.125 38.4844 -1.125
Q37.3125 -1.125 36.4062 -0.34375
Q35.5 0.4375 35.5 1.70312
Q35.5 2.29688 35.5938 2.59375
L42 28.0781
Q43.0156 32.1719 43.0156 34.9062
Q43.0156 37.7031 41.8594 39.6562
Q40.7188 41.6094 37.9844 41.6094
Q34.3281 41.6094 31.25 39.9844
Q28.1719 38.375 25.875 35.7188
Q23.5781 33.0625 21.6875 29.3906
L14.8906 2.20312
Q14.5469 0.828125 13.3438 -0.140625
Q12.1562 -1.125 10.6875 -1.125
Q9.46875 -1.125 8.59375 -0.34375
Q7.71875 0.4375 7.71875 1.70312" id="Cmmi10-6d"/>
     <path d="
M2.78125 16.5
L2.78125 20.0156
L33.6875 66.1094
Q34.0312 66.6094 34.7188 66.6094
L36.1875 66.6094
Q37.3125 66.6094 37.3125 65.4844
L37.3125 20.0156
L47.125 20.0156
L47.125 16.5
L37.3125 16.5
L37.3125 6.6875
Q37.3125 4.64062 40.2344 4.07812
Q43.1719 3.51562 47.0156 3.51562
L47.0156 0
L19.4844 0
L19.4844 3.51562
Q23.3438 3.51562 26.2656 4.07812
Q29.2031 4.64062 29.2031 6.6875
L29.2031 16.5
z

M6.10938 20.0156
L29.7812 20.0156
L29.7812 55.4219
z
" id="Cmr10-34"/>
     <path d="
M6.10938 -2.20312
Q5.8125 -2.20312 5.5625 -1.85938
Q5.32812 -1.51562 5.32812 -1.21875
L11.0781 22.125
Q11.2812 22.7031 11.9219 22.7031
L13.0938 22.7031
Q13.4844 22.7031 13.7031 22.4062
Q13.9219 22.125 13.9219 21.6875
Q13.0938 18.2656 13.0938 15.5781
Q13.0938 8.34375 18.0625 4.82812
Q23.0469 1.3125 30.6094 1.3125
Q33.8906 1.3125 37.0625 2.92188
Q40.2344 4.54688 42.5938 7.125
Q44.9688 9.71875 46.375 12.9062
Q47.7969 16.1094 47.7969 19.3906
Q47.7969 22.9062 45.9375 25.6562
Q44.0938 28.4219 40.8281 29.2031
L28.6094 32.4219
Q23.6875 33.7344 20.75 37.7188
Q17.8281 41.7031 17.8281 46.6875
Q17.8281 52.6875 21.3906 58.25
Q24.9531 63.8125 30.6875 67.1562
Q36.4219 70.5156 42.3906 70.5156
Q46.9688 70.5156 50.7969 68.8281
Q54.6406 67.1406 56.6875 63.4844
L62.4062 70.2188
Q62.9844 70.5156 63.0938 70.5156
L63.7188 70.5156
Q64.1094 70.5156 64.3438 70.1719
Q64.5938 69.8281 64.5938 69.4844
L58.7969 46.2969
Q58.6406 45.6094 58.0156 45.6094
L56.7812 45.6094
Q55.9062 45.6094 55.9062 46.6875
Q56.3906 49.8594 56.3906 52.2031
Q56.3906 56.8438 54.7969 60.2812
Q53.2188 63.7188 50.0156 65.5
Q46.8281 67.2812 42.0938 67.2812
Q38.0938 67.2812 34.125 64.9844
Q30.1719 62.7031 27.7344 58.8906
Q25.2969 55.0781 25.2969 50.9844
Q25.2969 47.75 27.1719 45.2656
Q29.0469 42.7812 32.1719 41.8906
L44.3906 38.7188
Q47.7031 37.8438 50.1719 35.625
Q52.6406 33.4062 53.9062 30.3438
Q55.1719 27.2969 55.1719 23.6875
Q55.1719 18.9531 53.1719 14.3281
Q51.1719 9.71875 47.5781 5.90625
Q44 2.09375 39.4531 -0.046875
Q34.9062 -2.20312 30.1719 -2.20312
Q18.2656 -2.20312 13.0938 4.78125
L7.51562 -1.90625
Q6.9375 -2.20312 6.78125 -2.20312
z
" id="Cmmi10-53"/>
     <path d="
M4.59375 1.3125
Q4.64062 1.5625 4.8125 2.1875
Q4.98438 2.82812 5.25 3.17188
Q5.51562 3.51562 6 3.51562
Q14.5938 3.51562 17.3906 4
Q20.0625 4.6875 20.6094 6.89062
L34.2812 61.8125
Q34.7188 63.0312 34.7188 64.0156
Q34.7188 64.7969 31.2031 64.7969
L25.3906 64.7969
Q18.7031 64.7969 15.0625 62.7344
Q11.4219 60.6875 9.71875 57.3125
Q8.01562 53.9531 5.32812 46.2969
Q4.98438 45.4062 4.29688 45.4062
L3.42188 45.4062
Q2.39062 45.4062 2.39062 46.6875
L9.51562 67.3906
Q9.71875 68.3125 10.5 68.3125
L69.5781 68.3125
Q70.6094 68.3125 70.6094 67
L67.2812 46.2969
Q67.2812 46 66.9375 45.7031
Q66.6094 45.4062 66.3125 45.4062
L65.375 45.4062
Q64.4062 45.4062 64.4062 46.6875
Q65.4844 53.7656 65.4844 56.6875
Q65.4844 60.2031 64.0156 62
Q62.5469 63.8125 60.2031 64.2969
Q57.8594 64.7969 54.1094 64.7969
L48.1875 64.7969
Q45.5156 64.7969 44.5781 64.2969
Q43.6562 63.8125 43.0156 61.375
L29.2969 6.5
Q29.25 6.29688 29.2188 6.09375
Q29.2031 5.90625 29.1094 5.60938
Q29.1094 4.34375 30.6094 4
Q33.2031 3.51562 41.7031 3.51562
Q42.6719 3.51562 42.6719 2.20312
Q42.3281 0.78125 42.125 0.390625
Q41.9375 0 41.0156 0
L5.60938 0
Q4.59375 0 4.59375 1.3125" id="Cmmi10-54"/>
     <path d="
M7.71875 1.70312
Q7.71875 2.29688 7.8125 2.59375
L15.2812 32.4219
Q16.0156 35.2031 16.0156 37.3125
Q16.0156 41.6094 13.0938 41.6094
Q9.96875 41.6094 8.45312 37.8594
Q6.9375 34.125 5.51562 28.4219
Q5.51562 28.125 5.21875 27.9531
Q4.9375 27.7812 4.6875 27.7812
L3.51562 27.7812
Q3.17188 27.7812 2.92188 28.1406
Q2.6875 28.5156 2.6875 28.8125
Q3.76562 33.1562 4.76562 36.1719
Q5.76562 39.2031 7.89062 41.6875
Q10.0156 44.1875 13.1875 44.1875
Q16.6562 44.1875 19.2656 42.1875
Q21.875 40.1875 22.5156 36.9219
Q25.0469 40.2344 28.2969 42.2031
Q31.5469 44.1875 35.4062 44.1875
Q38.5781 44.1875 40.9844 42.3281
Q43.4062 40.4844 43.4062 37.3125
Q43.4062 34.7656 41.8125 32.875
Q40.2344 31 37.5938 31
Q35.9844 31 34.8906 32
Q33.7969 33.0156 33.7969 34.625
Q33.7969 36.8125 35.4062 38.5469
Q37.0156 40.2812 39.1094 40.2812
Q37.5 41.6094 35.2031 41.6094
Q30.9062 41.6094 27.7344 38.5469
Q24.5625 35.5 22.0156 30.8125
L14.8906 2.20312
Q14.5469 0.828125 13.3438 -0.140625
Q12.1562 -1.125 10.6875 -1.125
Q9.46875 -1.125 8.59375 -0.34375
Q7.71875 0.4375 7.71875 1.70312" id="Cmmi10-72"/>
     <path d="
M10.5938 10.8906
Q10.5938 14.1562 11.4688 17.5938
Q12.3594 21.0469 13.9375 25.2656
Q15.5312 29.5 16.7031 32.625
Q18.0156 36.2812 18.0156 38.625
Q18.0156 41.6094 15.8281 41.6094
Q11.8594 41.6094 9.29688 37.5312
Q6.73438 33.4531 5.51562 28.4219
Q5.32812 27.7812 4.6875 27.7812
L3.51562 27.7812
Q2.6875 27.7812 2.6875 28.7188
L2.6875 29
Q4.29688 34.9688 7.60938 39.5781
Q10.9375 44.1875 16.0156 44.1875
Q19.5781 44.1875 22.0469 41.8438
Q24.5156 39.5 24.5156 35.8906
Q24.5156 34.0312 23.6875 31.9844
Q23.25 30.7656 21.6875 26.6562
Q20.125 22.5625 19.2812 19.875
Q18.4531 17.1875 17.9219 14.5938
Q17.3906 12.0156 17.3906 9.42188
Q17.3906 6.10938 18.7969 3.8125
Q20.2188 1.51562 23.3906 1.51562
Q29.7812 1.51562 34.625 9.42188
Q34.7188 9.8125 34.7812 10.1719
Q34.8594 10.5469 34.9062 10.8906
L42.0938 39.8906
Q42.4375 41.2188 43.6562 42.1562
Q44.875 43.1094 46.2969 43.1094
Q47.5156 43.1094 48.4062 42.3281
Q49.3125 41.5469 49.3125 40.2812
Q49.3125 39.7031 49.2188 39.5
L42 10.6875
Q41.3125 7.71875 41.3125 5.8125
Q41.3125 1.51562 44.1875 1.51562
Q47.4062 1.51562 49 5.48438
Q50.5938 9.46875 51.7031 14.7031
Q51.9062 15.2812 52.4844 15.2812
L53.7188 15.2812
Q54.1094 15.2812 54.3438 14.9375
Q54.5938 14.5938 54.5938 14.3125
Q53.5156 10.0156 52.5156 6.9375
Q51.5156 3.85938 49.3594 1.35938
Q47.2188 -1.125 44 -1.125
Q40.8281 -1.125 38.3125 0.609375
Q35.7969 2.34375 34.9062 5.32812
Q32.625 2.39062 29.5938 0.625
Q26.5625 -1.125 23.1875 -1.125
Q17.4375 -1.125 14.0156 2.01562
Q10.5938 5.17188 10.5938 10.8906" id="Cmmi10-75"/>
     <path d="
M8.40625 -14.3125
Q10.5 -17.9219 15.7188 -17.9219
Q20.4531 -17.9219 23.9219 -14.5938
Q27.3906 -11.2812 29.5156 -6.5625
Q31.6406 -1.85938 32.8125 3.07812
Q28.375 -1.125 23.1875 -1.125
Q19.2344 -1.125 16.4531 0.234375
Q13.6719 1.60938 12.125 4.3125
Q10.5938 7.03125 10.5938 10.8906
Q10.5938 14.1562 11.4688 17.5938
Q12.3594 21.0469 13.9375 25.2656
Q15.5312 29.5 16.7031 32.625
Q18.0156 36.2812 18.0156 38.625
Q18.0156 41.6094 15.8281 41.6094
Q11.8594 41.6094 9.29688 37.5312
Q6.73438 33.4531 5.51562 28.4219
Q5.32812 27.7812 4.6875 27.7812
L3.51562 27.7812
Q2.6875 27.7812 2.6875 28.7188
L2.6875 29
Q4.29688 34.9688 7.60938 39.5781
Q10.9375 44.1875 16.0156 44.1875
Q19.5781 44.1875 22.0469 41.8438
Q24.5156 39.5 24.5156 35.8906
Q24.5156 34.0312 23.6875 31.9844
Q23.25 30.7656 21.6875 26.6562
Q20.125 22.5625 19.2812 19.875
Q18.4531 17.1875 17.9219 14.5938
Q17.3906 12.0156 17.3906 9.42188
Q17.3906 6.10938 18.7969 3.8125
Q20.2188 1.51562 23.2969 1.51562
Q29.5 1.51562 34.4219 9.07812
L42 39.8906
Q42.3281 41.2188 43.5469 42.1562
Q44.7812 43.1094 46.1875 43.1094
Q47.4062 43.1094 48.3125 42.3281
Q49.2188 41.5469 49.2188 40.2812
Q49.2188 39.7031 49.125 39.5
L39.2031 -0.296875
Q37.8906 -5.42188 34.375 -10.1094
Q30.8594 -14.7969 25.9062 -17.6562
Q20.9531 -20.5156 15.5781 -20.5156
Q12.9844 -20.5156 10.4375 -19.5
Q7.90625 -18.5 6.34375 -16.5
Q4.78125 -14.5 4.78125 -11.8125
Q4.78125 -9.07812 6.39062 -7.07812
Q8.01562 -5.07812 10.6875 -5.07812
Q12.3125 -5.07812 13.4062 -6.07812
Q14.5 -7.07812 14.5 -8.6875
Q14.5 -10.9844 12.7812 -12.6875
Q11.0781 -14.4062 8.79688 -14.4062
Q8.6875 -14.3594 8.59375 -14.3281
Q8.5 -14.3125 8.40625 -14.3125" id="Cmmi10-79"/>
    </defs>
    <g transform="translate(424.1475 59.65375)scale(0.144 -0.144)">
     <use transform="translate(0.0 28.0)" xlink:href="#Cmmi10-74"/>
     <use transform="translate(53.642578125 28.0)" xlink:href="#Cmr10-3d"/>
     <use transform="translate(137.701171875 28.0)" xlink:href="#Cmr10-37"/>
     <use transform="translate(187.701171875 28.0)" xlink:href="#Cmr10-33"/>
     <use transform="translate(237.701171875 28.0)" xlink:href="#Cmr10-30"/>
     <use transform="translate(322.818359375 28.0)" xlink:href="#Cmr10-28"/>
     <use transform="translate(361.63671875 28.0)" xlink:href="#Cmmi10-64"/>
     <use transform="translate(413.638671875 28.0)" xlink:href="#Cmmi10-61"/>
     <use transform="translate(466.421875 28.0)" xlink:href="#Cmmi10-79"/>
     <use transform="translate(515.4453125 28.0)" xlink:href="#Cmmi10-73"/>
     <use transform="translate(562.22265625 28.0)" xlink:href="#Cmr10-29"/>
     <use transform="translate(601.041015625 28.0)" xlink:href="#Cmmi10-3b"/>
     <use transform="translate(665.826171875 28.0)" xlink:href="#Cmmi10-be"/>
     <use transform="translate(740.46484375 28.0)" xlink:href="#Cmr10-3d"/>
     <use transform="translate(824.5234375 28.0)" xlink:href="#Cmr10-30"/>
     <use transform="translate(874.5234375 28.0)" xlink:href="#Cmmi10-3a"/>
     <use transform="translate(903.06640625 28.0)" xlink:href="#Cmr10-32"/>
     <use transform="translate(953.06640625 28.0)" xlink:href="#Cmmi10-3b"/>
     <use transform="translate(1017.8515625 28.0)" xlink:href="#Cmmi10-72"/>
     <use transform="translate(1080.52734375 28.0)" xlink:href="#Cmr10-3d"/>
     <use transform="translate(1164.5859375 28.0)" xlink:href="#Cmr10-30"/>
     <use transform="translate(1214.5859375 28.0)" xlink:href="#Cmmi10-3a"/>
     <use transform="translate(1243.12890625 28.0)" xlink:href="#Cmr10-30"/>
     <use transform="translate(1293.12890625 28.0)" xlink:href="#Cmr10-34"/>
     <use transform="translate(1343.12890625 28.0)" xlink:href="#Cmmi10-3b"/>
     <use transform="translate(1407.9140625 28.0)" xlink:href="#Cmmi10-53"/>
     <use transform="translate(1469.19335938 2.490625)scale(0.7)" xlink:href="#Cmr10-30"/>
     <use transform="translate(1521.75195312 28.0)" xlink:href="#Cmr10-3d"/>
     <use transform="translate(1605.81054688 28.0)" xlink:href="#Cmr10-31"/>
     <use transform="translate(1655.81054688 28.0)" xlink:href="#Cmr10-30"/>
     <use transform="translate(1705.81054688 28.0)" xlink:href="#Cmr10-30"/>
     <use transform="translate(1755.81054688 28.0)" xlink:href="#Cmr10-30"/>
     <use transform="translate(1805.81054688 28.0)" xlink:href="#Cmmi10-3a"/>
     <use transform="translate(1834.35351562 28.0)" xlink:href="#Cmr10-30"/>
     <use transform="translate(1884.35351562 28.0)" xlink:href="#Cmmi10-3b"/>
     <use transform="translate(1949.13867188 28.0)" xlink:href="#Cmmi10-6d"/>
     <use transform="translate(2036.93164062 28.0)" xlink:href="#Cmmi10-6f"/>
     <use transform="translate(2102.87890625 28.0)" xlink:href="#Cmr10-3d"/>
     <use transform="translate(2186.9375 28.0)" xlink:href="#Cmmi10-54"/>
     <use transform="translate(2245.3359375 28.0)" xlink:href="#Cmmi10-72"/>
     <use transform="translate(2290.453125 28.0)" xlink:href="#Cmmi10-75"/>
     <use transform="translate(2347.63085938 28.0)" xlink:href="#Cmmi10-65"/>
     <use transform="translate(2394.11523438 28.0)" xlink:href="#Cmmi10-3b"/>
     <use transform="translate(2458.90039062 28.0)" xlink:href="#Cmmi10-62"/>
     <use transform="translate(2501.8203125 28.0)" xlink:href="#Cmmi10-66"/>
     <use transform="translate(2568.25585938 28.0)" xlink:href="#Cmr10-3d"/>
     <use transform="translate(2652.31445312 28.0)" xlink:href="#Cmmi10-54"/>
     <use transform="translate(2710.71289062 28.0)" xlink:href="#Cmmi10-72"/>
     <use transform="translate(2755.83007812 28.0)" xlink:href="#Cmmi10-75"/>
     <use transform="translate(2813.0078125 28.0)" xlink:href="#Cmmi10-65"/>
    </g>
   </g>
  </g>
 </g>
 <defs>
  <clipPath id="p308ec8ec34">
   <rect height="483.84" width="952.785" x="153.675" y="60.48"/>
  </clipPath>
 </defs>
</svg>
